<?xml version="1.0" encoding="UTF-8"?>
<svg width="248px" height="230px" viewBox="0 0 248 230" version="1.1" xmlns="http://www.w3.org/2000/svg" xmlns:xlink="http://www.w3.org/1999/xlink">
    <title>icon-paste-2</title>
    <defs>
        <filter id="filter-1">
            <feColorMatrix in="SourceGraphic" type="matrix" values="0 0 0 0 0.291277 0 0 0 0 0.292830 0 0 0 0 0.306810 0 0 0 1.000000 0"></feColorMatrix>
        </filter>
    </defs>
    <g id="Page-1" stroke="none" stroke-width="1" fill="none" fill-rule="evenodd">
        <g filter="url(#filter-1)" id="icon-paste-2">
            <g>
                <path d="M243.609375,0.890625 C245.542372,0.890625 247.109375,2.45762838 247.109375,4.390625 C247.109375,6.32362162 245.542372,7.890625 243.609375,7.890625 C220.902403,7.890625 204.019293,10.2248335 193.753401,15.2966277 C191.243018,16.5368656 189.157955,17.9204758 187.506506,19.4729823 L187.388,19.584625 L187.533739,19.6356866 C197.586706,23.2017978 204.622505,27.9729046 208.544079,33.5982357 L208.780283,33.9437081 C212.760911,39.8815179 213.018739,46.5018063 209.843519,51.7170816 C206.815626,56.6903739 201.149238,59.4779471 195.280629,58.677551 C188.903093,57.8077444 183.261152,52.9719503 179.507547,44.7505059 C176.208739,37.5251925 175.19085,31.1141982 176.308415,25.5954807 L176.371,25.295625 L176.307985,25.2976234 C74.184477,27.469135 24.197785,82.3127824 25.338405,191.087518 L25.388,194.407625 L26.448,212.768625 L36.706251,191.787768 C37.555258,190.051202 39.65128,189.331693 41.387846,190.1807 C43.064531,191.000432 43.79309,192.982659 43.07717,194.681434 L42.994914,194.862296 L26.868965,227.84644 C25.69945,230.238576 22.416473,230.484784 20.889264,228.361714 L20.778076,228.198038 L0.963855,197.288546 C-0.079335,195.661208 0.394212,193.496317 2.021551,192.453127 C3.592775,191.44591 5.665117,191.85263 6.745121,193.346609 L6.85697,193.510824 L19.46,213.171625 L18.396498,194.740473 L18.391379,194.608659 C16.075511,78.6542594 70.090534,19.4213067 179.363201,18.2482431 L179.396,18.247625 L179.568172,17.9963568 C181.980663,14.5411434 185.553436,11.6097613 190.225124,9.23509893 L190.652849,9.02075511 C202.137107,3.34703547 219.904093,0.890625 243.609375,0.890625 Z M183.504,25.656625 L183.481936,25.7271446 C182.140203,30.0632148 182.909269,35.3468821 185.875265,41.8432441 C188.697143,48.0239472 192.430729,51.2240605 196.226573,51.7417606 C199.300776,52.1610387 202.26606,50.7022704 203.864488,48.0768637 C205.596139,45.2326408 205.452761,41.5511139 202.965933,37.8415702 C199.887432,33.2494416 193.610783,29.0511123 184.038271,25.8335011 L183.504,25.656625 Z" id="Path" fill="#E0E0E0" fill-rule="nonzero"></path>
            </g>
        </g>
    </g>
</svg>