<?xml version="1.0" encoding="UTF-8"?>
<svg width="634px" height="159px" viewBox="0 0 634 159" version="1.1" xmlns="http://www.w3.org/2000/svg" xmlns:xlink="http://www.w3.org/1999/xlink">
    <!-- Generator: Sketch 62 (91390) - https://sketch.com -->
    <title>img-logo-white</title>
    <desc>Created with Sketch.</desc>
    <defs>
        <path d="M15.6642161,29.9095835 C17.6695151,29.9095835 19.5956576,29.5403294 21.4426436,28.8018212 C23.2896296,28.0633129 24.8727604,27.0610518 26.1920361,25.7950376 C27.5113118,24.5290235 28.5667323,23.0256318 29.3582977,21.2848624 C30.1498631,19.5440929 30.5456458,17.6714471 30.5456458,15.6669247 C30.5456458,13.6624024 30.1498631,11.7897565 29.3582977,10.0489871 C28.5667323,8.30821765 27.5113118,6.80482588 26.1920361,5.53881176 C24.8727604,4.27279765 23.2896296,3.27053647 21.4426436,2.53202824 C19.5956576,1.79352 17.6695151,1.42426588 15.6642161,1.42426588 C13.553375,1.42426588 11.600847,1.81989529 9.80663202,2.61115412 C8.01241709,3.40241294 6.42928626,4.43104941 5.05723955,5.69706353 C3.68519283,6.96307765 2.62977228,8.46646941 1.8909779,10.2072388 C1.15218351,11.9480082 0.78278632,13.7679035 0.78278632,15.6669247 C0.78278632,19.5704682 2.20760406,22.9201306 5.05723955,25.7159118 C7.90687503,28.5116929 11.4425339,29.9095835 15.6642161,29.9095835 Z M28.6458888,119.638334 L28.6458888,40.8289553 L2.68254331,40.8289553 L2.68254331,119.638334 L28.6458888,119.638334 Z M70.7307833,119.638334 L70.7307833,76.9103576 C70.7307833,72.1628047 71.8653604,68.15376 74.1345146,64.8832235 C76.4036687,61.6126871 79.5963159,59.9774188 83.712456,59.9774188 C87.6175121,59.9774188 90.4671476,61.2961835 92.2613625,63.9337129 C94.0555774,66.5712424 94.9526849,70.1582824 94.9526849,74.6948329 L94.9526849,74.6948329 L94.9526849,119.638334 L120.91603,119.638334 L120.91603,77.0686094 C120.91603,74.8530847 121.179886,72.7166859 121.707596,70.6594129 C122.235306,68.60214 123.053257,66.7822447 124.161449,65.1997271 C125.26964,63.6172094 126.641687,62.3511953 128.277589,61.4016847 C129.913491,60.4521741 131.839633,59.9774188 134.056016,59.9774188 C136.377941,59.9774188 138.251313,60.4257988 139.676131,61.3225588 C141.100948,62.2193188 142.235526,63.4062071 143.079862,64.8832235 C143.924198,66.36024 144.50468,68.1273847 144.821306,70.1846576 C145.137932,72.2419306 145.296245,74.3783294 145.296245,76.5938541 L145.296245,76.5938541 L145.296245,119.638334 L171.259591,119.638334 L171.259591,70.8967906 C171.259591,67.2042494 170.758266,63.4325824 169.755616,59.5817894 C168.752967,55.7309965 167.143451,52.2494576 164.927067,49.1371729 C162.710684,46.0248882 159.781892,43.49286 156.140691,41.5410882 C152.49949,39.5893165 147.987568,38.6134306 142.604923,38.6134306 C136.694568,38.6134306 131.68132,39.8266941 127.56518,42.2532212 C123.44904,44.6797482 120.071694,47.9502847 117.433143,52.0648306 C115.216759,47.7392824 112.129654,44.4159953 108.171827,42.0949694 C104.214,39.7739435 99.3854512,38.6134306 93.6861802,38.6134306 C90.7310027,38.6134306 88.0132948,38.9826847 85.5330565,39.7211929 C83.0528182,40.4597012 80.8100495,41.4355871 78.8047505,42.6488506 C76.7994514,43.8621141 75.084393,45.2600047 73.6595753,46.8425224 C72.2347576,48.42504 71.0474094,50.0603082 70.0975309,51.7483271 L70.0975309,51.7483271 L69.7809048,51.7483271 L69.7809048,40.8289553 L44.6091247,40.8289553 L44.6091247,119.638334 L70.7307833,119.638334 Z M210.01991,121.537355 C214.769303,121.537355 219.175684,120.640595 223.239053,118.847075 C227.302422,117.053555 230.336756,114.521527 232.342055,111.250991 L232.342055,111.250991 L232.816994,111.250991 L232.816994,119.638334 L256.563957,119.638334 L256.563957,79.9171412 C256.563957,72.7430612 255.904319,66.5448671 254.585043,61.3225588 C253.265767,56.1002506 251.181312,51.7747024 248.331676,48.3459141 C245.482041,44.9171259 241.761683,42.3850976 237.170604,40.7498294 C232.579525,39.1145612 226.95941,38.2969271 220.310261,38.2969271 C213.872195,38.2969271 207.566058,39.4046894 201.391847,41.6202141 C195.217637,43.8357388 189.808607,47.1590259 185.164756,51.5900753 L185.164756,51.5900753 L198.304742,65.6744824 C200.73221,63.4589576 203.661002,61.5599365 207.091118,59.9774188 C210.521235,58.3949012 214.083279,57.6036424 217.777251,57.6036424 C221.78785,57.6036424 225.165195,58.5267776 227.909289,60.3730482 C230.653382,62.2193188 232.025429,65.0942259 232.025429,68.9977694 L232.025429,68.9977694 L232.025429,70.2637835 C226.326158,70.2637835 220.468574,70.5802871 214.452677,71.2132941 C208.43678,71.8463012 202.974978,73.1123153 198.067273,75.0113365 C193.159567,76.9103576 189.148969,79.6006376 186.035478,83.0821765 C182.921988,86.5637153 181.365242,91.1530165 181.365242,96.85008 C181.365242,101.492132 182.26235,105.395675 184.056565,108.560711 C185.85078,111.725746 188.146319,114.257774 190.943184,116.156795 C193.740048,118.055816 196.827153,119.427332 200.204499,120.271341 C203.581845,121.115351 206.853649,121.537355 210.01991,121.537355 Z M216.510747,104.129661 C215.244242,104.129661 213.924966,103.997785 212.55292,103.734032 C211.180873,103.470279 209.967139,103.021899 208.911719,102.388892 C207.856298,101.755885 206.985576,100.911875 206.299553,99.8568635 C205.61353,98.8018518 205.270518,97.5358376 205.270518,96.0588212 C205.270518,93.7377953 206.009312,91.8651494 207.486901,90.4408835 C208.96449,89.0166176 210.837861,87.9352306 213.107015,87.1967224 C215.37617,86.4582141 217.96195,85.9570835 220.864357,85.6933306 C223.766763,85.4295776 226.642784,85.2977012 229.49242,85.2977012 L229.49242,85.2977012 L232.816994,85.2977012 L232.816994,87.9879812 C232.816994,92.9465365 231.418562,96.8764553 228.621698,99.7777376 C225.824833,102.67902 221.78785,104.129661 216.510747,104.129661 Z M308.464262,157.618758 C315.430038,157.618758 321.788947,156.695622 327.540989,154.849352 C333.293031,153.003081 338.174351,150.2073 342.184949,146.462008 C346.195547,142.716716 349.309037,137.995539 351.525421,132.298475 C353.741804,126.601412 354.849995,119.902087 354.849995,112.200501 L354.849995,112.200501 L354.849995,40.8289553 L330.311468,40.8289553 L330.311468,50.9570682 L329.994841,50.9570682 C327.250748,46.7370212 323.609547,43.6247365 319.071239,41.6202141 C314.53293,39.6156918 309.783538,38.6134306 304.823061,38.6134306 C298.912706,38.6134306 293.635603,39.7475682 288.991753,42.0158435 C284.347903,44.2841188 280.416461,47.3172776 277.197428,51.11532 C273.978396,54.9133624 271.524543,59.2916612 269.83587,64.2502165 C268.147197,69.2087718 267.302861,74.43108 267.302861,79.9171412 C267.302861,85.4032024 268.147197,90.5991353 269.83587,95.50494 C271.524543,100.410745 273.978396,104.709918 277.197428,108.402459 C280.416461,112.095 284.347903,115.022658 288.991753,117.185432 C293.635603,119.348206 298.965477,120.429593 304.981374,120.429593 C310.258477,120.429593 314.955099,119.480082 319.071239,117.581061 C323.187379,115.68204 326.459183,113.150012 328.88665,109.984976 L328.88665,109.984976 L329.361589,109.984976 L329.361589,114.732529 C329.361589,121.379104 327.540989,126.706913 323.899788,130.715958 C320.258587,134.725002 314.638472,136.729525 307.039444,136.729525 C302.606678,136.729525 298.094755,135.911891 293.503676,134.276622 C288.912596,132.641354 284.7173,130.135701 280.917786,126.759664 L280.917786,126.759664 L267.936113,145.27512 C273.318758,149.284165 279.677667,152.343699 287.01284,154.453722 C294.348012,156.563746 301.498487,157.618758 308.464262,157.618758 Z M310.997272,99.8568635 C308.042094,99.8568635 305.429928,99.3029824 303.160774,98.19522 C300.89162,97.0874576 298.965477,95.6104412 297.382346,93.7641706 C295.799216,91.9179 294.585482,89.7815012 293.741146,87.3549741 C292.896809,84.9284471 292.474641,82.3964188 292.474641,79.7588894 C292.474641,77.0158588 292.896809,74.43108 293.741146,72.0045529 C294.585482,69.5780259 295.799216,67.4680024 297.382346,65.6744824 C298.965477,63.8809624 300.89162,62.4566965 303.160774,61.4016847 C305.429928,60.3466729 308.042094,59.8191671 310.997272,59.8191671 C313.952449,59.8191671 316.591,60.3466729 318.912926,61.4016847 C321.234851,62.4566965 323.24015,63.9073376 324.928823,65.7536082 C326.617496,67.5998788 327.910386,69.7362776 328.807493,72.1628047 C329.704601,74.5893318 330.153154,77.12136 330.153154,79.7588894 C330.153154,82.50192 329.704601,85.0866988 328.807493,87.5132259 C327.910386,89.9397529 326.643881,92.0497765 325.007979,93.8432965 C323.372077,95.6368165 321.366778,97.0874576 318.992082,98.19522 C316.617386,99.3029824 313.952449,99.8568635 310.997272,99.8568635 Z M384.11153,29.9095835 C386.116829,29.9095835 388.042972,29.5403294 389.889958,28.8018212 C391.736944,28.0633129 393.320074,27.0610518 394.63935,25.7950376 C395.958626,24.5290235 397.014046,23.0256318 397.805612,21.2848624 C398.597177,19.5440929 398.99296,17.6714471 398.99296,15.6669247 C398.99296,13.6624024 398.597177,11.7897565 397.805612,10.0489871 C397.014046,8.30821765 395.958626,6.80482588 394.63935,5.53881176 C393.320074,4.27279765 391.736944,3.27053647 389.889958,2.53202824 C388.042972,1.79352 386.116829,1.42426588 384.11153,1.42426588 C382.000689,1.42426588 380.048161,1.81989529 378.253946,2.61115412 C376.459731,3.40241294 374.8766,4.43104941 373.504554,5.69706353 C372.132507,6.96307765 371.077086,8.46646941 370.338292,10.2072388 C369.599498,11.9480082 369.2301,13.7679035 369.2301,15.6669247 C369.2301,19.5704682 370.654918,22.9201306 373.504554,25.7159118 C376.354189,28.5116929 379.889848,29.9095835 384.11153,29.9095835 Z M397.093203,119.638334 L397.093203,40.8289553 L371.129857,40.8289553 L371.129857,119.638334 L397.093203,119.638334 Z M463.399999,121.853859 C469.310354,121.853859 474.587457,120.693346 479.231307,118.37232 C483.875158,116.051294 487.806599,112.965385 491.025632,109.114592 C494.244665,105.263799 496.698517,100.806374 498.38719,95.7423176 C500.075863,90.6782612 500.920199,85.4032024 500.920199,79.9171412 C500.920199,74.43108 500.049478,69.1823965 498.308034,64.1710906 C496.56659,59.1597847 494.086351,54.7551106 490.867319,50.9570682 C487.648286,47.1590259 483.74323,44.1522424 479.152151,41.9367176 C474.561071,39.7211929 469.415896,38.6134306 463.716625,38.6134306 C457.911812,38.6134306 453.004107,39.7211929 448.993508,41.9367176 C444.98291,44.1522424 441.86942,46.5787694 439.653037,49.2162988 L439.653037,49.2162988 L439.33641,49.2162988 L439.33641,0 L413.373065,0 L413.373065,119.638334 L437.27834,119.638334 L437.27834,109.351969 L437.594966,109.351969 C440.127976,113.361014 443.742791,116.446924 448.439413,118.609698 C453.136034,120.772472 458.122896,121.853859 463.399999,121.853859 Z M457.225789,100.331619 C454.270611,100.331619 451.63206,99.7513624 449.310135,98.5908494 C446.988209,97.4303365 445.009296,95.9005694 443.373394,94.0015482 C441.737492,92.1025271 440.470987,89.9397529 439.57388,87.5132259 C438.676773,85.0866988 438.228219,82.6074212 438.228219,80.0753929 C438.228219,77.5433647 438.676773,75.0640871 439.57388,72.63756 C440.470987,70.2110329 441.737492,68.0482588 443.373394,66.1492376 C445.009296,64.2502165 446.988209,62.7204494 449.310135,61.5599365 C451.63206,60.3994235 454.270611,59.8191671 457.225789,59.8191671 C460.286508,59.8191671 462.977831,60.3994235 465.299756,61.5599365 C467.621681,62.7204494 469.574209,64.2238412 471.15734,66.0701118 C472.740471,67.9163824 473.927819,70.0527812 474.719384,72.4793082 C475.51095,74.9058353 475.906732,77.3851129 475.906732,79.9171412 C475.906732,82.4491694 475.51095,84.9548224 474.719384,87.4341 C473.927819,89.9133776 472.740471,92.1025271 471.15734,94.0015482 C469.574209,95.9005694 467.621681,97.4303365 465.299756,98.5908494 C462.977831,99.7513624 460.286508,100.331619 457.225789,100.331619 Z M539.363893,119.638334 L539.363893,0 L513.083921,0 L513.083921,119.638334 L539.363893,119.638334 Z M594.747086,122.170362 C602.768283,122.170362 609.813215,120.719721 615.881883,117.818439 C621.950551,114.917156 626.831871,110.776235 630.525843,105.395675 L630.525843,105.395675 L612.478152,94.0015482 C610.683937,96.4280753 608.362011,98.4062224 605.512376,99.9359894 C602.662741,101.465756 599.179853,102.23064 595.063713,102.23064 C592.741787,102.23064 590.499019,101.861386 588.335407,101.122878 C586.171794,100.384369 584.219266,99.3557329 582.477822,98.0369682 C580.736379,96.7182035 579.311561,95.1620612 578.203369,93.3685412 C577.095178,91.5750212 576.43554,89.5704988 576.224456,87.3549741 L576.224456,87.3549741 L633.375479,87.3549741 C633.481021,86.4054635 633.533792,85.4032024 633.533792,84.3481906 L633.533792,84.3481906 L633.533792,81.1831553 C633.533792,74.43108 632.557528,68.4175129 630.605,63.1424541 C628.652472,57.8673953 625.934764,53.3835953 622.451876,49.6910541 C618.968988,45.9985129 614.800077,43.1763565 609.945142,41.2245847 C605.090208,39.2728129 599.760334,38.2969271 593.955521,38.2969271 C587.939624,38.2969271 582.345895,39.2991882 577.174334,41.3037106 C572.002774,43.3082329 567.517236,46.1303894 563.717722,49.77018 C559.918208,53.4099706 556.91026,57.84102 554.693877,63.0633282 C552.477493,68.2856365 551.369302,74.1145765 551.369302,80.5501482 C551.369302,87.1967224 552.503879,93.1047882 554.773033,98.2743459 C557.042187,103.443904 560.155678,107.795827 564.113505,111.330116 C568.071332,114.864406 572.688797,117.554686 577.9659,119.400956 C583.243002,121.247227 588.836731,122.170362 594.747086,122.170362 Z M609.628516,71.2132941 L576.224456,71.2132941 C576.329998,69.2087718 576.857708,67.2833753 577.807587,65.4371047 C578.757465,63.5908341 580.02397,61.9819412 581.607101,60.6104259 C583.190231,59.2389106 585.037217,58.1575235 587.148058,57.3662647 C589.2589,56.5750059 591.580825,56.1793765 594.113834,56.1793765 C599.285395,56.1793765 603.164065,57.6563929 605.749846,60.6104259 C608.335626,63.5644588 609.628516,67.0987482 609.628516,71.2132941 L609.628516,71.2132941 Z" id="path-1"></path>
    </defs>
    <g id="Page-1" stroke="none" stroke-width="1" fill="none" fill-rule="evenodd">
        <g id="img-logo-white">
            <g id="Mask" transform="translate(0.000000, 0.967842)" fill="#FFFFFF" fill-rule="nonzero">
                <path d="M15.6642161,29.9095835 C17.6695151,29.9095835 19.5956576,29.5403294 21.4426436,28.8018212 C23.2896296,28.0633129 24.8727604,27.0610518 26.1920361,25.7950376 C27.5113118,24.5290235 28.5667323,23.0256318 29.3582977,21.2848624 C30.1498631,19.5440929 30.5456458,17.6714471 30.5456458,15.6669247 C30.5456458,13.6624024 30.1498631,11.7897565 29.3582977,10.0489871 C28.5667323,8.30821765 27.5113118,6.80482588 26.1920361,5.53881176 C24.8727604,4.27279765 23.2896296,3.27053647 21.4426436,2.53202824 C19.5956576,1.79352 17.6695151,1.42426588 15.6642161,1.42426588 C13.553375,1.42426588 11.600847,1.81989529 9.80663202,2.61115412 C8.01241709,3.40241294 6.42928626,4.43104941 5.05723955,5.69706353 C3.68519283,6.96307765 2.62977228,8.46646941 1.8909779,10.2072388 C1.15218351,11.9480082 0.78278632,13.7679035 0.78278632,15.6669247 C0.78278632,19.5704682 2.20760406,22.9201306 5.05723955,25.7159118 C7.90687503,28.5116929 11.4425339,29.9095835 15.6642161,29.9095835 Z M28.6458888,119.638334 L28.6458888,40.8289553 L2.68254331,40.8289553 L2.68254331,119.638334 L28.6458888,119.638334 Z M70.7307833,119.638334 L70.7307833,76.9103576 C70.7307833,72.1628047 71.8653604,68.15376 74.1345146,64.8832235 C76.4036687,61.6126871 79.5963159,59.9774188 83.712456,59.9774188 C87.6175121,59.9774188 90.4671476,61.2961835 92.2613625,63.9337129 C94.0555774,66.5712424 94.9526849,70.1582824 94.9526849,74.6948329 L94.9526849,74.6948329 L94.9526849,119.638334 L120.91603,119.638334 L120.91603,77.0686094 C120.91603,74.8530847 121.179886,72.7166859 121.707596,70.6594129 C122.235306,68.60214 123.053257,66.7822447 124.161449,65.1997271 C125.26964,63.6172094 126.641687,62.3511953 128.277589,61.4016847 C129.913491,60.4521741 131.839633,59.9774188 134.056016,59.9774188 C136.377941,59.9774188 138.251313,60.4257988 139.676131,61.3225588 C141.100948,62.2193188 142.235526,63.4062071 143.079862,64.8832235 C143.924198,66.36024 144.50468,68.1273847 144.821306,70.1846576 C145.137932,72.2419306 145.296245,74.3783294 145.296245,76.5938541 L145.296245,76.5938541 L145.296245,119.638334 L171.259591,119.638334 L171.259591,70.8967906 C171.259591,67.2042494 170.758266,63.4325824 169.755616,59.5817894 C168.752967,55.7309965 167.143451,52.2494576 164.927067,49.1371729 C162.710684,46.0248882 159.781892,43.49286 156.140691,41.5410882 C152.49949,39.5893165 147.987568,38.6134306 142.604923,38.6134306 C136.694568,38.6134306 131.68132,39.8266941 127.56518,42.2532212 C123.44904,44.6797482 120.071694,47.9502847 117.433143,52.0648306 C115.216759,47.7392824 112.129654,44.4159953 108.171827,42.0949694 C104.214,39.7739435 99.3854512,38.6134306 93.6861802,38.6134306 C90.7310027,38.6134306 88.0132948,38.9826847 85.5330565,39.7211929 C83.0528182,40.4597012 80.8100495,41.4355871 78.8047505,42.6488506 C76.7994514,43.8621141 75.084393,45.2600047 73.6595753,46.8425224 C72.2347576,48.42504 71.0474094,50.0603082 70.0975309,51.7483271 L70.0975309,51.7483271 L69.7809048,51.7483271 L69.7809048,40.8289553 L44.6091247,40.8289553 L44.6091247,119.638334 L70.7307833,119.638334 Z M210.01991,121.537355 C214.769303,121.537355 219.175684,120.640595 223.239053,118.847075 C227.302422,117.053555 230.336756,114.521527 232.342055,111.250991 L232.342055,111.250991 L232.816994,111.250991 L232.816994,119.638334 L256.563957,119.638334 L256.563957,79.9171412 C256.563957,72.7430612 255.904319,66.5448671 254.585043,61.3225588 C253.265767,56.1002506 251.181312,51.7747024 248.331676,48.3459141 C245.482041,44.9171259 241.761683,42.3850976 237.170604,40.7498294 C232.579525,39.1145612 226.95941,38.2969271 220.310261,38.2969271 C213.872195,38.2969271 207.566058,39.4046894 201.391847,41.6202141 C195.217637,43.8357388 189.808607,47.1590259 185.164756,51.5900753 L185.164756,51.5900753 L198.304742,65.6744824 C200.73221,63.4589576 203.661002,61.5599365 207.091118,59.9774188 C210.521235,58.3949012 214.083279,57.6036424 217.777251,57.6036424 C221.78785,57.6036424 225.165195,58.5267776 227.909289,60.3730482 C230.653382,62.2193188 232.025429,65.0942259 232.025429,68.9977694 L232.025429,68.9977694 L232.025429,70.2637835 C226.326158,70.2637835 220.468574,70.5802871 214.452677,71.2132941 C208.43678,71.8463012 202.974978,73.1123153 198.067273,75.0113365 C193.159567,76.9103576 189.148969,79.6006376 186.035478,83.0821765 C182.921988,86.5637153 181.365242,91.1530165 181.365242,96.85008 C181.365242,101.492132 182.26235,105.395675 184.056565,108.560711 C185.85078,111.725746 188.146319,114.257774 190.943184,116.156795 C193.740048,118.055816 196.827153,119.427332 200.204499,120.271341 C203.581845,121.115351 206.853649,121.537355 210.01991,121.537355 Z M216.510747,104.129661 C215.244242,104.129661 213.924966,103.997785 212.55292,103.734032 C211.180873,103.470279 209.967139,103.021899 208.911719,102.388892 C207.856298,101.755885 206.985576,100.911875 206.299553,99.8568635 C205.61353,98.8018518 205.270518,97.5358376 205.270518,96.0588212 C205.270518,93.7377953 206.009312,91.8651494 207.486901,90.4408835 C208.96449,89.0166176 210.837861,87.9352306 213.107015,87.1967224 C215.37617,86.4582141 217.96195,85.9570835 220.864357,85.6933306 C223.766763,85.4295776 226.642784,85.2977012 229.49242,85.2977012 L229.49242,85.2977012 L232.816994,85.2977012 L232.816994,87.9879812 C232.816994,92.9465365 231.418562,96.8764553 228.621698,99.7777376 C225.824833,102.67902 221.78785,104.129661 216.510747,104.129661 Z M308.464262,157.618758 C315.430038,157.618758 321.788947,156.695622 327.540989,154.849352 C333.293031,153.003081 338.174351,150.2073 342.184949,146.462008 C346.195547,142.716716 349.309037,137.995539 351.525421,132.298475 C353.741804,126.601412 354.849995,119.902087 354.849995,112.200501 L354.849995,112.200501 L354.849995,40.8289553 L330.311468,40.8289553 L330.311468,50.9570682 L329.994841,50.9570682 C327.250748,46.7370212 323.609547,43.6247365 319.071239,41.6202141 C314.53293,39.6156918 309.783538,38.6134306 304.823061,38.6134306 C298.912706,38.6134306 293.635603,39.7475682 288.991753,42.0158435 C284.347903,44.2841188 280.416461,47.3172776 277.197428,51.11532 C273.978396,54.9133624 271.524543,59.2916612 269.83587,64.2502165 C268.147197,69.2087718 267.302861,74.43108 267.302861,79.9171412 C267.302861,85.4032024 268.147197,90.5991353 269.83587,95.50494 C271.524543,100.410745 273.978396,104.709918 277.197428,108.402459 C280.416461,112.095 284.347903,115.022658 288.991753,117.185432 C293.635603,119.348206 298.965477,120.429593 304.981374,120.429593 C310.258477,120.429593 314.955099,119.480082 319.071239,117.581061 C323.187379,115.68204 326.459183,113.150012 328.88665,109.984976 L328.88665,109.984976 L329.361589,109.984976 L329.361589,114.732529 C329.361589,121.379104 327.540989,126.706913 323.899788,130.715958 C320.258587,134.725002 314.638472,136.729525 307.039444,136.729525 C302.606678,136.729525 298.094755,135.911891 293.503676,134.276622 C288.912596,132.641354 284.7173,130.135701 280.917786,126.759664 L280.917786,126.759664 L267.936113,145.27512 C273.318758,149.284165 279.677667,152.343699 287.01284,154.453722 C294.348012,156.563746 301.498487,157.618758 308.464262,157.618758 Z M310.997272,99.8568635 C308.042094,99.8568635 305.429928,99.3029824 303.160774,98.19522 C300.89162,97.0874576 298.965477,95.6104412 297.382346,93.7641706 C295.799216,91.9179 294.585482,89.7815012 293.741146,87.3549741 C292.896809,84.9284471 292.474641,82.3964188 292.474641,79.7588894 C292.474641,77.0158588 292.896809,74.43108 293.741146,72.0045529 C294.585482,69.5780259 295.799216,67.4680024 297.382346,65.6744824 C298.965477,63.8809624 300.89162,62.4566965 303.160774,61.4016847 C305.429928,60.3466729 308.042094,59.8191671 310.997272,59.8191671 C313.952449,59.8191671 316.591,60.3466729 318.912926,61.4016847 C321.234851,62.4566965 323.24015,63.9073376 324.928823,65.7536082 C326.617496,67.5998788 327.910386,69.7362776 328.807493,72.1628047 C329.704601,74.5893318 330.153154,77.12136 330.153154,79.7588894 C330.153154,82.50192 329.704601,85.0866988 328.807493,87.5132259 C327.910386,89.9397529 326.643881,92.0497765 325.007979,93.8432965 C323.372077,95.6368165 321.366778,97.0874576 318.992082,98.19522 C316.617386,99.3029824 313.952449,99.8568635 310.997272,99.8568635 Z M384.11153,29.9095835 C386.116829,29.9095835 388.042972,29.5403294 389.889958,28.8018212 C391.736944,28.0633129 393.320074,27.0610518 394.63935,25.7950376 C395.958626,24.5290235 397.014046,23.0256318 397.805612,21.2848624 C398.597177,19.5440929 398.99296,17.6714471 398.99296,15.6669247 C398.99296,13.6624024 398.597177,11.7897565 397.805612,10.0489871 C397.014046,8.30821765 395.958626,6.80482588 394.63935,5.53881176 C393.320074,4.27279765 391.736944,3.27053647 389.889958,2.53202824 C388.042972,1.79352 386.116829,1.42426588 384.11153,1.42426588 C382.000689,1.42426588 380.048161,1.81989529 378.253946,2.61115412 C376.459731,3.40241294 374.8766,4.43104941 373.504554,5.69706353 C372.132507,6.96307765 371.077086,8.46646941 370.338292,10.2072388 C369.599498,11.9480082 369.2301,13.7679035 369.2301,15.6669247 C369.2301,19.5704682 370.654918,22.9201306 373.504554,25.7159118 C376.354189,28.5116929 379.889848,29.9095835 384.11153,29.9095835 Z M397.093203,119.638334 L397.093203,40.8289553 L371.129857,40.8289553 L371.129857,119.638334 L397.093203,119.638334 Z M463.399999,121.853859 C469.310354,121.853859 474.587457,120.693346 479.231307,118.37232 C483.875158,116.051294 487.806599,112.965385 491.025632,109.114592 C494.244665,105.263799 496.698517,100.806374 498.38719,95.7423176 C500.075863,90.6782612 500.920199,85.4032024 500.920199,79.9171412 C500.920199,74.43108 500.049478,69.1823965 498.308034,64.1710906 C496.56659,59.1597847 494.086351,54.7551106 490.867319,50.9570682 C487.648286,47.1590259 483.74323,44.1522424 479.152151,41.9367176 C474.561071,39.7211929 469.415896,38.6134306 463.716625,38.6134306 C457.911812,38.6134306 453.004107,39.7211929 448.993508,41.9367176 C444.98291,44.1522424 441.86942,46.5787694 439.653037,49.2162988 L439.653037,49.2162988 L439.33641,49.2162988 L439.33641,0 L413.373065,0 L413.373065,119.638334 L437.27834,119.638334 L437.27834,109.351969 L437.594966,109.351969 C440.127976,113.361014 443.742791,116.446924 448.439413,118.609698 C453.136034,120.772472 458.122896,121.853859 463.399999,121.853859 Z M457.225789,100.331619 C454.270611,100.331619 451.63206,99.7513624 449.310135,98.5908494 C446.988209,97.4303365 445.009296,95.9005694 443.373394,94.0015482 C441.737492,92.1025271 440.470987,89.9397529 439.57388,87.5132259 C438.676773,85.0866988 438.228219,82.6074212 438.228219,80.0753929 C438.228219,77.5433647 438.676773,75.0640871 439.57388,72.63756 C440.470987,70.2110329 441.737492,68.0482588 443.373394,66.1492376 C445.009296,64.2502165 446.988209,62.7204494 449.310135,61.5599365 C451.63206,60.3994235 454.270611,59.8191671 457.225789,59.8191671 C460.286508,59.8191671 462.977831,60.3994235 465.299756,61.5599365 C467.621681,62.7204494 469.574209,64.2238412 471.15734,66.0701118 C472.740471,67.9163824 473.927819,70.0527812 474.719384,72.4793082 C475.51095,74.9058353 475.906732,77.3851129 475.906732,79.9171412 C475.906732,82.4491694 475.51095,84.9548224 474.719384,87.4341 C473.927819,89.9133776 472.740471,92.1025271 471.15734,94.0015482 C469.574209,95.9005694 467.621681,97.4303365 465.299756,98.5908494 C462.977831,99.7513624 460.286508,100.331619 457.225789,100.331619 Z M539.363893,119.638334 L539.363893,0 L513.083921,0 L513.083921,119.638334 L539.363893,119.638334 Z M594.747086,122.170362 C602.768283,122.170362 609.813215,120.719721 615.881883,117.818439 C621.950551,114.917156 626.831871,110.776235 630.525843,105.395675 L630.525843,105.395675 L612.478152,94.0015482 C610.683937,96.4280753 608.362011,98.4062224 605.512376,99.9359894 C602.662741,101.465756 599.179853,102.23064 595.063713,102.23064 C592.741787,102.23064 590.499019,101.861386 588.335407,101.122878 C586.171794,100.384369 584.219266,99.3557329 582.477822,98.0369682 C580.736379,96.7182035 579.311561,95.1620612 578.203369,93.3685412 C577.095178,91.5750212 576.43554,89.5704988 576.224456,87.3549741 L576.224456,87.3549741 L633.375479,87.3549741 C633.481021,86.4054635 633.533792,85.4032024 633.533792,84.3481906 L633.533792,84.3481906 L633.533792,81.1831553 C633.533792,74.43108 632.557528,68.4175129 630.605,63.1424541 C628.652472,57.8673953 625.934764,53.3835953 622.451876,49.6910541 C618.968988,45.9985129 614.800077,43.1763565 609.945142,41.2245847 C605.090208,39.2728129 599.760334,38.2969271 593.955521,38.2969271 C587.939624,38.2969271 582.345895,39.2991882 577.174334,41.3037106 C572.002774,43.3082329 567.517236,46.1303894 563.717722,49.77018 C559.918208,53.4099706 556.91026,57.84102 554.693877,63.0633282 C552.477493,68.2856365 551.369302,74.1145765 551.369302,80.5501482 C551.369302,87.1967224 552.503879,93.1047882 554.773033,98.2743459 C557.042187,103.443904 560.155678,107.795827 564.113505,111.330116 C568.071332,114.864406 572.688797,117.554686 577.9659,119.400956 C583.243002,121.247227 588.836731,122.170362 594.747086,122.170362 Z M609.628516,71.2132941 L576.224456,71.2132941 C576.329998,69.2087718 576.857708,67.2833753 577.807587,65.4371047 C578.757465,63.5908341 580.02397,61.9819412 581.607101,60.6104259 C583.190231,59.2389106 585.037217,58.1575235 587.148058,57.3662647 C589.2589,56.5750059 591.580825,56.1793765 594.113834,56.1793765 C599.285395,56.1793765 603.164065,57.6563929 605.749846,60.6104259 C608.335626,63.5644588 609.628516,67.0987482 609.628516,71.2132941 L609.628516,71.2132941 Z" id="path-1"></path>
            </g>
            <g id="Clipped" transform="translate(0.000000, 0.967842)">
                <mask id="mask-2" fill="white">
                    <use xlink:href="#path-1"></use>
                </mask>
                <g id="path-1"></g>
                <path d="M-1.1697417,66.8877459 C78.6523174,77.3380665 135.820931,81.7339488 170.336098,80.0753929 C283.943785,74.6162074 348.438316,60.2939224 420.998478,60.2939224 C525.103133,60.2939224 597.663296,75.6795106 638.678967,106.450687 L632.082588,159.201275 L-1.1697417,159.201275 L-1.1697417,66.8877459 Z" id="Path" fill="#F0F0F0" fill-rule="nonzero" mask="url(#mask-2)"></path>
            </g>
        </g>
    </g>
</svg>