<?xml version="1.0" encoding="UTF-8"?>
<svg width="166px" height="31px" viewBox="0 0 166 31" version="1.1" xmlns="http://www.w3.org/2000/svg" xmlns:xlink="http://www.w3.org/1999/xlink">
    <!-- Generator: Sketch 62 (91390) - https://sketch.com -->
    <title>logo-imagible-03</title>
    <desc>Created with Sketch.</desc>
    <g id="Uploader" stroke="none" stroke-width="1" fill="none" fill-rule="evenodd">
        <g id="Homepage-Copy" transform="translate(-68.000000, -63.000000)">
            <g id="logo-imagible-03" transform="translate(69.000000, 64.000000)">
                <g id="Group-4-Copy" stroke-linecap="round" stroke="#7FFFD4" stroke-width="2">
                    <g id="Group-3">
                        <path d="M23.1156678,22.4616834 L29.0904623,22.4616834 C29.4107874,22.4616834 29.6704623,22.7263427 29.6704623,23.0528164 L29.6704623,28.9835219 L29.6704623,28.9835219" id="Rectangle" transform="translate(26.393065, 25.722603) rotate(90.000000) translate(-26.393065, -25.722603) "></path>
                        <path d="M23.1321458,1.06681311e-14 L29.2666587,1.06681311e-14 C29.5931325,1.06681311e-14 29.8577917,0.259674845 29.8577917,0.58 L29.8577917,6.35616438 L29.8577917,6.35616438" id="Rectangle-Copy"></path>
                        <path d="M0.0854257669,22.4616835 L6.06022029,22.4616835 C6.38054545,22.4616835 6.64022029,22.7263427 6.64022029,23.0528165 L6.64022029,28.9835219 L6.64022029,28.9835219" id="Rectangle" transform="translate(3.362823, 25.722603) scale(-1, 1) rotate(90.000000) translate(-3.362823, -25.722603) "></path>
                        <path d="M0.101903852,-1.00579782e-15 L6.23641677,-1.00579782e-15 C6.56289051,-1.00579782e-15 6.82754977,0.259674845 6.82754977,0.58 L6.82754977,6.35616438 L6.82754977,6.35616438" id="Rectangle-Copy" transform="translate(3.464727, 3.178082) scale(-1, 1) translate(-3.464727, -3.178082) "></path>
                    </g>
                </g>
                <path d="M49.987,5.426 C50.3736667,5.426 50.7023333,5.29066667 50.973,5.02 C51.2436667,4.74933333 51.379,4.42066667 51.379,4.034 C51.379,3.64733333 51.2436667,3.31866667 50.973,3.048 C50.7023333,2.77733333 50.3736667,2.642 49.987,2.642 C49.6003333,2.642 49.2716667,2.77733333 49.001,3.048 C48.7303333,3.31866667 48.595,3.64733333 48.595,4.034 C48.595,4.42066667 48.7303333,4.74933333 49.001,5.02 C49.2716667,5.29066667 49.6003333,5.426 49.987,5.426 Z M50.944,23 L50.944,8.5 L49.03,8.5 L49.03,23 L50.944,23 Z M57.518,23 L57.518,14.967 C57.518,13.285 57.924,12.038 58.736,11.226 C59.548,10.414 60.534,10.008 61.694,10.008 C62.738,10.008 63.5645,10.3463333 64.1735,11.023 C64.7825,11.6996667 65.087,12.676 65.087,13.952 L65.087,13.952 L65.087,23 L67.001,23 L67.001,14.967 C67.001,13.2656667 67.3731667,12.0138333 68.1175,11.2115 C68.8618333,10.4091667 69.8333333,10.008 71.032,10.008 C72.0953333,10.008 72.9508333,10.3511667 73.5985,11.0375 C74.2461667,11.7238333 74.57,12.6953333 74.57,13.952 L74.57,13.952 L74.57,23 L76.484,23 L76.484,13.952 C76.484,12.1733333 75.9861667,10.762 74.9905,9.718 C73.9948333,8.674 72.685,8.152 71.061,8.152 C68.973,8.152 67.407,9.03166667 66.363,10.791 C65.5123333,9.03166667 64.043,8.152 61.955,8.152 C60.041,8.152 58.562,8.97366667 57.518,10.617 L57.518,10.617 L57.518,8.5 L55.604,8.5 L55.604,23 L57.518,23 Z M87.408,23.348 C89.9793333,23.348 91.932,22.2846667 93.266,20.158 L93.266,20.158 L93.266,23 L95.18,23 L95.18,8.5 L93.266,8.5 L93.266,11.342 C91.932,9.21533333 89.9793333,8.152 87.408,8.152 C85.3393333,8.152 83.5751667,8.88666667 82.1155,10.356 C80.6558333,11.8253333 79.926,13.6233333 79.926,15.75 C79.926,17.8766667 80.6558333,19.6746667 82.1155,21.144 C83.5751667,22.6133333 85.3393333,23.348 87.408,23.348 Z M87.553,21.492 C85.9483333,21.492 84.595,20.941 83.493,19.839 C82.391,18.7176667 81.84,17.3546667 81.84,15.75 C81.84,14.1453333 82.391,12.7871667 83.493,11.6755 C84.595,10.5638333 85.9483333,10.008 87.553,10.008 C89.1576667,10.008 90.511,10.5638333 91.613,11.6755 C92.715,12.7871667 93.266,14.1453333 93.266,15.75 C93.266,17.3546667 92.715,18.7128333 91.613,19.8245 C90.511,20.9361667 89.1576667,21.492 87.553,21.492 Z M106.945,29.148 C108.936333,29.148 110.647333,28.5486667 112.078,27.35 C113.508667,26.1513333 114.224,24.508 114.224,22.42 L114.224,22.42 L114.224,8.5 L112.31,8.5 L112.31,11.342 C110.976,9.21533333 109.023333,8.152 106.452,8.152 C104.383333,8.152 102.619167,8.88666667 101.1595,10.356 C99.6998333,11.8253333 98.97,13.6233333 98.97,15.75 C98.97,17.8766667 99.6998333,19.6746667 101.1595,21.144 C102.619167,22.6133333 104.383333,23.348 106.452,23.348 C109.023333,23.348 110.976,22.2846667 112.31,20.158 L112.31,20.158 L112.31,22.42 C112.31,23.9086667 111.8315,25.0928333 110.8745,25.9725 C109.9175,26.8521667 108.607667,27.292 106.945,27.292 C104.354333,27.292 102.624,26.4123333 101.754,24.653 L101.754,24.653 L100.072,25.61 C101.251333,27.9686667 103.542333,29.148 106.945,29.148 Z M106.597,21.492 C104.992333,21.492 103.639,20.941 102.537,19.839 C101.435,18.7176667 100.884,17.3546667 100.884,15.75 C100.884,14.1453333 101.435,12.7871667 102.537,11.6755 C103.639,10.5638333 104.992333,10.008 106.597,10.008 C108.201667,10.008 109.555,10.5638333 110.657,11.6755 C111.759,12.7871667 112.31,14.1453333 112.31,15.75 C112.31,17.3546667 111.759,18.7128333 110.657,19.8245 C109.555,20.9361667 108.201667,21.492 106.597,21.492 Z M119.841,5.426 C120.227667,5.426 120.556333,5.29066667 120.827,5.02 C121.097667,4.74933333 121.233,4.42066667 121.233,4.034 C121.233,3.64733333 121.097667,3.31866667 120.827,3.048 C120.556333,2.77733333 120.227667,2.642 119.841,2.642 C119.454333,2.642 119.125667,2.77733333 118.855,3.048 C118.584333,3.31866667 118.449,3.64733333 118.449,4.034 C118.449,4.42066667 118.584333,4.74933333 118.855,5.02 C119.125667,5.29066667 119.454333,5.426 119.841,5.426 Z M120.798,23 L120.798,8.5 L118.884,8.5 L118.884,23 L120.798,23 Z M133.23,23.348 C135.298667,23.348 137.062833,22.6133333 138.5225,21.144 C139.982167,19.6746667 140.712,17.8766667 140.712,15.75 C140.712,13.6233333 139.982167,11.8253333 138.5225,10.356 C137.062833,8.88666667 135.298667,8.152 133.23,8.152 C130.658667,8.152 128.706,9.21533333 127.372,11.342 L127.372,11.342 L127.372,2.7 L125.458,2.7 L125.458,23 L127.372,23 L127.372,20.158 C128.706,22.2846667 130.658667,23.348 133.23,23.348 Z M133.085,21.492 C131.480333,21.492 130.127,20.941 129.025,19.839 C127.923,18.7176667 127.372,17.3546667 127.372,15.75 C127.372,14.1453333 127.923,12.7871667 129.025,11.6755 C130.127,10.5638333 131.480333,10.008 133.085,10.008 C134.689667,10.008 136.043,10.5638333 137.145,11.6755 C138.247,12.7871667 138.798,14.1453333 138.798,15.75 C138.798,17.3546667 138.247,18.7128333 137.145,19.8245 C136.043,20.9361667 134.689667,21.492 133.085,21.492 Z M146.416,23 L146.416,1.83 L144.502,1.83 L144.502,23 L146.416,23 Z M157.92,23.348 C159.331333,23.348 160.588,23.0483333 161.69,22.449 C162.792,21.8496667 163.662,21.0376667 164.3,20.013 L164.3,20.013 L162.618,19.027 C162.212,19.7616667 161.607833,20.3561667 160.8055,20.8105 C160.003167,21.2648333 159.051,21.492 157.949,21.492 C156.402333,21.492 155.102167,21.0618333 154.0485,20.2015 C152.994833,19.3411667 152.371333,18.1763333 152.178,16.707 L152.178,16.707 L164.909,16.707 C164.947667,16.3203333 164.967,16.0206667 164.967,15.808 C164.967,13.7393333 164.304833,11.9461667 162.9805,10.4285 C161.656167,8.91083333 159.921,8.152 157.775,8.152 C155.551667,8.152 153.734333,8.877 152.323,10.327 C150.911667,11.777 150.206,13.5846667 150.206,15.75 C150.206,17.954 150.921333,19.7713333 152.352,21.202 C153.782667,22.6326667 155.638667,23.348 157.92,23.348 Z M162.995,14.851 L152.178,14.851 C152.371333,13.4203333 152.9755,12.2555 153.9905,11.3565 C155.0055,10.4575 156.267,10.008 157.775,10.008 C159.089667,10.008 160.24,10.4333333 161.226,11.284 C162.212,12.1346667 162.801667,13.3236667 162.995,14.851 L162.995,14.851 Z" id="imagible" fill="#FFFFFF" fill-rule="nonzero"></path>
            </g>
        </g>
    </g>
</svg>