<?xml version="1.0" encoding="UTF-8"?>
<svg width="864px" height="208px" viewBox="0 0 864 208" version="1.1" xmlns="http://www.w3.org/2000/svg" xmlns:xlink="http://www.w3.org/1999/xlink">
    <!-- Generator: Sketch 62 (91390) - https://sketch.com -->
    <title>logo-imagible-01</title>
    <desc>Created with Sketch.</desc>
    <g id="Page-1" stroke="none" stroke-width="1" fill="none" fill-rule="evenodd">
        <g id="logo-imagible-01" transform="translate(4.000000, 4.000000)">
            <g id="Group-4-Copy" stroke="#FFFFFF" stroke-linecap="round" stroke-width="8">
                <g id="Group-3">
                    <path d="M155.990334,155.331707 L197.195813,155.331707 C199.404952,155.331707 201.195813,157.122568 201.195813,159.331707 L201.195813,199.462814 L201.195813,199.462814" id="Rectangle" transform="translate(178.593074, 177.397260) rotate(-270.000000) translate(-178.593074, -177.397260) "></path>
                    <path d="M156.52752,7.78676971e-14 L198.037724,7.78676971e-14 C200.246863,7.35376656e-14 202.037724,1.790861 202.037724,4 L202.037724,43.8356164 L202.037724,43.8356164" id="Rectangle-Copy" transform="translate(179.282622, 21.917808) rotate(-360.000000) translate(-179.282622, -21.917808) "></path>
                    <path d="M0.152362315,155.331707 L41.3578418,155.331707 C43.5669808,155.331707 45.3578418,157.122568 45.3578418,159.331707 L45.3578418,199.462814 L45.3578418,199.462814" id="Rectangle" transform="translate(22.755102, 177.397260) scale(-1, 1) rotate(-270.000000) translate(-22.755102, -177.397260) "></path>
                    <path d="M0.689548547,0 L42.1997526,0 C44.4088916,-4.05812251e-16 46.1997526,1.790861 46.1997526,4 L46.1997526,43.8356164 L46.1997526,43.8356164" id="Rectangle-Copy" transform="translate(23.444651, 21.917808) scale(-1, 1) rotate(-360.000000) translate(-23.444651, -21.917808) "></path>
                </g>
            </g>
            <path d="M293.696,148.8 C294.722667,148.8 295.621,148.440667 296.391,147.722 C297.161,147.003333 297.546,146.130667 297.546,145.104 L297.546,145.104 L297.546,44.696 C297.546,43.6693333 297.161,42.7966667 296.391,42.078 C295.621,41.3593333 294.722667,41 293.696,41 C292.669333,41 291.796667,41.3593333 291.078,42.078 C290.359333,42.7966667 290,43.6693333 290,44.696 L290,44.696 L290,145.104 C290,146.130667 290.359333,147.003333 291.078,147.722 C291.796667,148.440667 292.669333,148.8 293.696,148.8 Z M328.4145,148.8 C329.0305,148.8 329.543833,148.594667 329.9545,148.184 C331.083833,147.568 331.6485,146.592667 331.6485,145.258 L331.6485,145.258 L331.6485,104.14 C331.6485,97.672 333.907167,92.1536667 338.4245,87.585 C342.941833,83.0163333 348.4345,80.732 354.9025,80.732 C361.3705,80.732 366.863167,83.0163333 371.3805,87.585 C375.897833,92.1536667 378.1565,97.672 378.1565,104.14 L378.1565,104.14 L378.1565,146.028 C378.259167,146.130667 378.336167,146.259 378.3875,146.413 C378.438833,146.567 378.490167,146.695333 378.5415,146.798 C378.592833,146.900667 378.798167,147.157333 379.1575,147.568 C379.516833,147.978667 379.747833,148.184 379.8505,148.184 L379.8505,148.184 L381.0825,148.8 L381.8525,148.8 C382.4685,148.8 383.187167,148.569 384.0085,148.107 C384.829833,147.645 385.343167,147.054667 385.5485,146.336 L385.5485,146.336 L385.5485,146.028 L385.7025,145.72 L385.7025,104.14 C385.7025,97.7746667 387.986833,92.282 392.5555,87.662 C397.124167,83.042 402.591167,80.732 408.9565,80.732 C415.321833,80.732 420.763167,83.0163333 425.2805,87.585 C429.797833,92.1536667 432.159167,97.672 432.3645,104.14 L432.3645,104.14 L432.3645,145.258 C432.3645,146.182 432.698167,147.003333 433.3655,147.722 C434.032833,148.440667 434.879833,148.8 435.9065,148.8 C436.933167,148.8 437.805833,148.440667 438.5245,147.722 C439.243167,147.003333 439.6025,146.182 439.6025,145.258 L439.6025,145.258 L439.6025,104.14 C439.6025,95.7213333 436.5995,88.509 430.5935,82.503 C424.5875,76.497 417.375167,73.494 408.9565,73.494 C403.309833,73.494 398.073833,74.957 393.2485,77.883 C388.423167,80.809 384.6245,84.6846667 381.8525,89.51 C379.183167,84.6846667 375.4615,80.809 370.6875,77.883 C365.9135,74.957 360.651833,73.494 354.9025,73.494 C345.457167,73.494 337.705833,77.0873333 331.6485,84.274 L331.6485,84.274 L331.6485,77.036 C331.6485,76.0093333 331.289167,75.1623333 330.5705,74.495 C329.851833,73.8276667 329.004833,73.494 328.0295,73.494 C327.054167,73.494 326.207167,73.8276667 325.4885,74.495 C324.769833,75.1623333 324.4105,76.0093333 324.4105,77.036 L324.4105,77.036 L324.4105,146.028 C324.923833,147.670667 325.9505,148.594667 327.4905,148.8 L327.4905,148.8 L328.4145,148.8 Z M520.675,148.8 C521.701667,148.8 522.574333,148.440667 523.293,147.722 C524.011667,147.003333 524.371,146.130667 524.371,145.104 L524.371,145.104 L524.371,77.036 C524.371,76.0093333 524.011667,75.1366667 523.293,74.418 C522.574333,73.6993333 521.701667,73.34 520.675,73.34 C519.648333,73.34 518.775667,73.6993333 518.057,74.418 C517.338333,75.1366667 516.979,76.0093333 516.979,77.036 L516.979,77.036 L516.979,88.124 C513.693667,83.6066667 509.561333,80.0133333 504.582,77.344 C499.602667,74.6746667 494.289667,73.34 488.643,73.34 C478.787,73.34 470.368333,77.036 463.387,84.428 C456.405667,91.82 452.915,100.700667 452.915,111.07 C452.915,121.439333 456.405667,130.32 463.387,137.712 C470.368333,145.104 478.787,148.8 488.643,148.8 C494.289667,148.8 499.602667,147.465333 504.582,144.796 C509.561333,142.126667 513.693667,138.482 516.979,133.862 L516.979,133.862 L516.979,145.104 C516.979,146.130667 517.338333,147.003333 518.057,147.722 C518.775667,148.440667 519.648333,148.8 520.675,148.8 Z M488.72,141.408 C480.968667,141.408 474.295333,138.456333 468.7,132.553 C463.104667,126.649667 460.307,119.488667 460.307,111.07 C460.307,102.651333 463.104667,95.4646667 468.7,89.51 C474.295333,83.5553333 480.968667,80.578 488.72,80.578 C496.471333,80.578 503.119,83.5553333 508.663,89.51 C514.207,95.4646667 516.979,102.651333 516.979,111.07 C516.979,119.488667 514.207,126.649667 508.663,132.553 C503.119,138.456333 496.471333,141.408 488.72,141.408 Z M576.9535,178.214 C586.8095,178.214 595.2025,174.749 602.1325,167.819 C609.0625,160.889 612.5275,152.547333 612.5275,142.794 L612.5275,142.794 L612.5275,77.036 C612.5275,76.0093333 612.168167,75.1366667 611.4495,74.418 C610.730833,73.6993333 609.883833,73.34 608.9085,73.34 C607.933167,73.34 607.0605,73.6993333 606.2905,74.418 C605.5205,75.1366667 605.1355,76.0093333 605.1355,77.036 L605.1355,77.036 L605.1355,88.124 C601.952833,83.6066667 597.871833,80.0133333 592.8925,77.344 C587.913167,74.6746667 582.600167,73.34 576.9535,73.34 C567.200167,73.34 558.8585,77.0103333 551.9285,84.351 C544.9985,91.6916667 541.5335,100.521 541.5335,110.839 C541.5335,121.157 544.972833,129.986333 551.8515,137.327 C558.730167,144.667667 567.0975,148.338 576.9535,148.338 C582.702833,148.338 588.0415,147.029 592.9695,144.411 C597.8975,141.793 601.952833,138.174 605.1355,133.554 L605.1355,133.554 L605.1355,142.794 C605.1355,150.596667 602.389167,157.218667 596.8965,162.66 C591.403833,168.101333 584.756167,170.822 576.9535,170.822 C572.6415,170.822 568.534833,169.898 564.6335,168.05 C562.4775,166.818 560.834833,167.382667 559.7055,169.744 C558.678833,171.592 559.192167,173.234667 561.2455,174.672 C566.686833,177.033333 571.922833,178.214 576.9535,178.214 Z M577.0305,141.1 C569.279167,141.1 562.657167,138.148333 557.1645,132.245 C551.671833,126.341667 548.9255,119.232 548.9255,110.916 C548.9255,102.497333 551.671833,95.362 557.1645,89.51 C562.657167,83.658 569.279167,80.732 577.0305,80.732 C584.781833,80.732 591.403833,83.6323333 596.8965,89.433 C602.389167,95.2336667 605.1355,102.343333 605.1355,110.762 C605.1355,119.180667 602.389167,126.341667 596.8965,132.245 C591.403833,138.148333 584.781833,141.1 577.0305,141.1 Z M642.318,59.942 C643.344667,59.942 644.243,59.557 645.013,58.787 C645.783,58.017 646.168,57.0673333 646.168,55.938 L646.168,55.938 L646.168,52.396 C646.168,51.3693333 645.783,50.4966667 645.013,49.778 C644.243,49.0593333 643.344667,48.7 642.318,48.7 C641.291333,48.7 640.418667,49.0593333 639.7,49.778 C638.981333,50.4966667 638.622,51.3693333 638.622,52.396 L638.622,52.396 L638.622,55.938 C638.622,57.0673333 638.981333,58.017 639.7,58.787 C640.418667,59.557 641.291333,59.942 642.318,59.942 Z M642.318,148.8 C643.344667,148.8 644.243,148.440667 645.013,147.722 C645.783,147.003333 646.168,146.130667 646.168,145.104 L646.168,145.104 L646.168,77.036 C646.168,76.0093333 645.808667,75.1366667 645.09,74.418 C644.371333,73.6993333 643.473,73.34 642.395,73.34 C641.317,73.34 640.418667,73.6993333 639.7,74.418 C638.981333,75.1366667 638.622,76.0093333 638.622,77.036 L638.622,77.036 L638.622,145.104 C638.622,146.130667 638.981333,147.003333 639.7,147.722 C640.418667,148.440667 641.291333,148.8 642.318,148.8 Z M708.4525,148.8 C718.6165,148.8 727.2405,145.129667 734.3245,137.789 C741.4085,130.448333 744.9505,121.567667 744.9505,111.147 C744.9505,100.726333 741.4085,91.82 734.3245,84.428 C727.2405,77.036 718.6165,73.34 708.4525,73.34 C702.6005,73.34 697.159167,74.6746667 692.1285,77.344 C687.097833,80.0133333 682.8885,83.6066667 679.5005,88.124 L679.5005,88.124 L679.5005,44.696 C679.5005,43.6693333 679.1155,42.7966667 678.3455,42.078 C677.5755,41.3593333 676.677167,41 675.6505,41 C674.623833,41 673.751167,41.3593333 673.0325,42.078 C672.313833,42.7966667 671.9545,43.6693333 671.9545,44.696 L671.9545,44.696 L671.9545,145.104 C671.9545,146.130667 672.313833,147.003333 673.0325,147.722 C673.751167,148.440667 674.623833,148.8 675.6505,148.8 C676.677167,148.8 677.5755,148.440667 678.3455,147.722 C679.1155,147.003333 679.5005,146.130667 679.5005,145.104 L679.5005,145.104 L679.5005,134.17 C682.8885,138.687333 687.097833,142.255 692.1285,144.873 C697.159167,147.491 702.6005,148.8 708.4525,148.8 Z M708.5295,141.254 C700.572833,141.254 693.7455,138.328 688.0475,132.476 C682.3495,126.624 679.5005,119.54 679.5005,111.224 L679.5005,111.224 L679.5005,109.992 C679.8085,101.881333 682.760167,95.0026667 688.3555,89.356 C693.950833,83.7093333 700.701167,80.886 708.6065,80.886 C716.511833,80.886 723.287833,83.8376667 728.9345,89.741 C734.581167,95.6443333 737.4045,102.779667 737.4045,111.147 C737.4045,119.514333 734.581167,126.624 728.9345,132.476 C723.287833,138.328 716.486167,141.254 708.5295,141.254 Z M768.581,148.8 C769.607667,148.8 770.506,148.440667 771.276,147.722 C772.046,147.003333 772.431,146.130667 772.431,145.104 L772.431,145.104 L772.431,44.696 C772.431,43.6693333 772.046,42.7966667 771.276,42.078 C770.506,41.3593333 769.607667,41 768.581,41 C767.554333,41 766.681667,41.3593333 765.963,42.078 C765.244333,42.7966667 764.885,43.6693333 764.885,44.696 L764.885,44.696 L764.885,145.104 C764.885,146.130667 765.244333,147.003333 765.963,147.722 C766.681667,148.440667 767.554333,148.8 768.581,148.8 Z M823.6275,148.8 C829.890167,148.8 835.7165,147.26 841.1065,144.18 C846.4965,141.1 850.834167,136.942 854.1195,131.706 C855.3515,129.652667 854.940833,127.907333 852.8875,126.47 C850.834167,125.238 849.1915,125.648667 847.9595,127.702 C845.392833,131.911333 841.9535,135.248 837.6415,137.712 C833.3295,140.176 828.658167,141.408 823.6275,141.408 C815.824833,141.408 809.100167,138.636 803.4535,133.092 C797.806833,127.548 794.778167,120.669333 794.3675,112.456 L794.3675,112.456 L856.2755,112.456 C857.302167,112.456 858.174833,112.148 858.8935,111.532 C859.612167,110.916 859.9715,110.094667 859.9715,109.068 L859.9715,109.068 L859.9715,108.452 C859.150167,98.4933333 855.300167,90.1516667 848.4215,83.427 C841.542833,76.7023333 833.149833,73.34 823.2425,73.34 C813.335167,73.34 804.813833,77.036 797.6785,84.428 C790.543167,91.82 786.9755,100.726333 786.9755,111.147 C786.9755,121.567667 790.543167,130.448333 797.6785,137.789 C804.813833,145.129667 813.4635,148.8 823.6275,148.8 Z M851.9635,105.218 L794.8295,105.218 C796.266833,98.0313333 799.654833,92.1536667 804.9935,87.585 C810.332167,83.0163333 816.517833,80.732 823.5505,80.732 C830.583167,80.732 836.768833,83.042 842.1075,87.662 C847.446167,92.282 850.7315,98.134 851.9635,105.218 L851.9635,105.218 Z" id="Imagible" fill="#FFFFFF" fill-rule="nonzero"></path>
        </g>
    </g>
</svg>