<svg xmlns="http://www.w3.org/2000/svg" width="167" height="80" viewBox="0 0 167 80">
    <g fill="none" fill-rule="evenodd">
        <g fill-rule="nonzero">
            <g>
                <g fill="#5D3CA1" stroke-linecap="round">
                    <g>
                        <path d="M30.218 21.72c1.118 0 2.019.874 2.095 1.965l.005.15v6.163h-3V24.72h-5.28v-3h6.18z" transform="translate(-173 -399) translate(175 399) translate(0 26) rotate(90 28.178 25.86)"/>
                        <path d="M30.414-1.5c1.11 0 2.031.853 2.11 1.95l.005.15v5.975h-3L29.528 1.5h-5.489v-3h6.375z" transform="translate(-173 -399) translate(175 399) translate(0 26)"/>
                        <path d="M6.285 21.72c1.117 0 2.019.874 2.095 1.965l.005.15v6.163h-3V24.72H.105v-3h6.18z" transform="translate(-173 -399) translate(175 399) translate(0 26) matrix(0 1 1 0 -21.615 21.615)"/>
                        <path d="M6.481-1.5c1.11 0 2.03.853 2.109 1.95l.005.15v5.975h-3V1.5L.105 1.5v-3h6.376z" transform="translate(-173 -399) translate(175 399) translate(0 26) matrix(-1 0 0 1 8.701 0)"/>
                    </g>
                </g>
                <path fill="#272932" d="M52.033 32.979c.502 0 .923-.194 1.265-.582.342-.387.513-.84.513-1.36 0-.465-.167-.873-.5-1.224-.332-.35-.758-.526-1.278-.526-.465 0-.868.187-1.21.56-.342.374-.512.812-.512 1.313 0 .474.17.896.512 1.265.342.369.745.554 1.21.554zM55.533 50v-.902c-.237-.019-.451-.053-.642-.103-.192-.05-.388-.116-.588-.198-.265-.1-.458-.255-.581-.465-.123-.21-.185-.474-.185-.793V36.547l-.191-.192-4.758.301v.889c.273.018.574.066.902.143.328.078.579.171.752.28.237.165.422.368.554.61.132.24.198.507.198.799v8.326c0 .328-.061.595-.184.8-.123.205-.313.349-.568.43-.164.055-.358.092-.58.11-.224.018-.44.036-.65.055V50h6.521zm9.468 0v-.902c-.246-.019-.47-.05-.67-.096-.2-.046-.397-.114-.588-.205-.255-.11-.447-.269-.574-.479-.128-.21-.192-.469-.192-.779v-7.725l.41-.567c.183-.25.406-.476.67-.677.329-.246.689-.44 1.08-.58.392-.142.812-.213 1.258-.213.648 0 1.188.258 1.62.773.433.515.65 1.246.65 2.194v6.96c0 .327-.062.594-.185.799-.123.205-.312.349-.567.43-.164.055-.344.092-.54.11l-.608.055V50h6.439v-.902c-.273-.019-.494-.048-.663-.09-.169-.04-.358-.102-.567-.184-.265-.11-.452-.266-.561-.471-.11-.206-.164-.468-.164-.787v-7.779c.091-.155.225-.349.403-.58.178-.233.399-.45.663-.65.328-.246.688-.438 1.08-.575.392-.136.812-.205 1.258-.205.647 0 1.187.258 1.62.773.433.515.65 1.246.65 2.194v6.96c0 .327-.062.594-.185.799-.123.205-.312.349-.567.43-.164.055-.353.092-.568.11l-.635.055V50h6.576v-.902c-.255-.019-.486-.048-.69-.09-.206-.04-.413-.102-.623-.184-.264-.11-.45-.266-.56-.471-.11-.206-.164-.468-.164-.787v-6.85c0-1.549-.333-2.697-.998-3.445-.666-.747-1.568-1.12-2.707-1.12-.575 0-1.096.072-1.566.218-.47.146-.877.337-1.223.574-.41.274-.741.531-.992.773l-.868.84c-.273-.665-.724-1.232-1.353-1.702-.63-.469-1.381-.704-2.256-.704-.556 0-1.073.073-1.552.22-.478.145-.877.327-1.196.546-.283.191-.588.442-.916.752-.328.31-.606.579-.834.807h-.096v-1.928l-.191-.192-4.512.301v.889c.273.018.538.061.793.13.255.068.47.157.642.266.237.164.422.363.554.595.132.233.198.495.198.786v8.381c0 .328-.061.595-.184.8-.123.205-.312.349-.568.43-.164.055-.357.092-.58.11-.224.018-.44.036-.65.055V50h6.549zm22.962.342c.957 0 1.775-.173 2.454-.52.679-.346 1.315-.847 1.907-1.504h.082c.118.638.39 1.124.813 1.456.424.333.992.5 1.703.5.41 0 .777-.048 1.1-.144.324-.096.7-.221 1.128-.376v-.875c-.31 0-.613-.005-.91-.014-.295-.009-.512-.054-.648-.136-.256-.146-.445-.324-.568-.534-.123-.21-.184-.492-.184-.847 0-1.194.013-2.295.04-3.302.028-1.007.042-2.163.042-3.466 0-.911-.121-1.656-.363-2.235-.241-.579-.594-1.037-1.06-1.374-.464-.347-.981-.572-1.551-.677-.57-.105-1.237-.157-2.003-.157-.556 0-1.126.089-1.709.266-.583.178-1.08.395-1.49.65-.474.3-.86.642-1.155 1.025-.297.383-.445.784-.445 1.203 0 .401.107.764.322 1.087.214.324.549.486 1.004.486.51 0 .91-.133 1.197-.397.287-.264.43-.556.43-.875 0-.3-.043-.629-.13-.984-.086-.356-.13-.625-.13-.807.146-.155.4-.303.76-.444.36-.142.749-.212 1.168-.212.611 0 1.083.125 1.415.376.333.25.59.544.773.882.164.3.271.62.321.957.05.337.075.565.075.683v1.354c-.437.237-1.283.565-2.536.984-1.253.42-2.085.706-2.495.861-.328.128-.679.299-1.053.513-.373.214-.674.458-.902.732-.292.328-.51.697-.656 1.107-.146.41-.219.875-.219 1.395 0 1.002.326 1.813.978 2.433.651.62 1.483.93 2.495.93zm1.38-1.504c-.61 0-1.114-.178-1.51-.533-.397-.356-.595-.912-.595-1.668 0-.584.132-1.087.397-1.511.264-.424.624-.79 1.08-1.1.5-.329 1.043-.602 1.627-.82.583-.22 1.262-.443 2.037-.67l-.082 4.716c-.338.428-.752.8-1.245 1.114-.492.315-1.061.472-1.709.472zm16.099 7.232c1.249 0 2.297-.118 3.145-.355.847-.237 1.576-.57 2.187-.998.574-.42 1.003-.914 1.285-1.484.283-.57.424-1.178.424-1.825s-.105-1.19-.314-1.627c-.21-.437-.497-.83-.862-1.176-.346-.319-.731-.57-1.155-.751-.424-.183-.845-.283-1.265-.301-.291-.01-.786-.037-1.483-.082-.697-.046-1.247-.073-1.648-.082-.373-.01-.736-.023-1.086-.041-.351-.019-.659-.064-.923-.137-.274-.064-.506-.185-.698-.362-.191-.178-.287-.436-.287-.773 0-.328.114-.588.342-.78.228-.19.447-.323.656-.396h1.655c1.276 0 2.394-.41 3.356-1.23.962-.82 1.442-1.823 1.442-3.008 0-.456-.082-.92-.246-1.394-.164-.474-.414-.907-.752-1.3v-.081h3.172v-1.313h-4.703c-.42-.127-.832-.232-1.237-.314-.406-.082-.814-.123-1.224-.123-1.485 0-2.705.41-3.657 1.23-.952.82-1.429 1.869-1.429 3.145 0 .847.242 1.592.725 2.235.483.643 1.162 1.169 2.037 1.58v.204c-.693.292-1.21.64-1.552 1.046-.342.406-.512.85-.512 1.333 0 .383.072.704.218.964.146.26.338.485.575.677.21.164.46.307.751.43.292.123.575.226.848.308v.191c-1.13.046-2.06.338-2.789.875-.73.538-1.094 1.272-1.094 2.202 0 1.148.506 2.02 1.518 2.618 1.012.597 2.538.895 4.58.895zm-.273-12.113c-.702 0-1.274-.319-1.716-.957-.442-.638-.663-1.463-.663-2.475 0-.446.038-.881.116-1.305.077-.424.207-.786.39-1.087.19-.328.44-.581.745-.759.305-.178.672-.267 1.1-.267.784 0 1.392.317 1.825.95.433.634.65 1.484.65 2.55 0 .967-.212 1.766-.636 2.4-.424.633-1.028.95-1.811.95zm.752 11.074c-.775 0-1.431-.075-1.97-.225-.537-.15-.965-.344-1.284-.581-.338-.246-.575-.515-.711-.807-.137-.292-.205-.597-.205-.916 0-.711.207-1.292.622-1.743.414-.451 1.114-.773 2.098-.964 1.048 0 1.969.023 2.762.068.793.046 1.317.087 1.572.123.483.119.843.342 1.08.67.237.328.356.748.356 1.258 0 1.048-.385 1.83-1.155 2.345-.77.515-1.826.772-3.165.772zm12.407-22.052c.5 0 .922-.194 1.264-.582.342-.387.513-.84.513-1.36 0-.465-.166-.873-.5-1.224-.332-.35-.758-.526-1.277-.526-.465 0-.869.187-1.21.56-.342.374-.513.812-.513 1.313 0 .474.17.896.513 1.265.341.369.745.554 1.21.554zm3.5 17.021v-.902c-.237-.019-.452-.053-.643-.103-.191-.05-.387-.116-.588-.198-.264-.1-.458-.255-.58-.465-.124-.21-.185-.474-.185-.793V36.547l-.192-.192-4.758.301v.889c.274.018.575.066.903.143.328.078.578.171.752.28.237.165.421.368.553.61.132.24.199.507.199.799v8.326c0 .328-.062.595-.185.8-.123.205-.312.349-.567.43-.164.055-.358.092-.581.11-.224.018-.44.036-.65.055V50h6.522zm5.038.725l1.011-1.573c.63.383 1.301.688 2.017.916.715.228 1.442.342 2.18.342 1.687 0 3.168-.688 4.444-2.064 1.276-1.377 1.914-3.076 1.914-5.1 0-2.105-.556-3.814-1.668-5.127-1.112-1.312-2.497-1.969-4.156-1.969-.647 0-1.306.15-1.976.452-.67.3-1.287.752-1.852 1.353l-.096-.027V29.04l-.191-.205-4.95.314v.875c.246.019.572.057.978.117.405.059.695.148.868.266.219.137.399.36.54.67.141.31.212.62.212.93v13.344c0 .884-.01 1.8-.027 2.748-.019.948-.05 1.759-.096 2.433l.848.192zm4.99-1.354c-.502 0-.925-.08-1.272-.24-.346-.159-.656-.366-.93-.621-.273-.265-.49-.543-.649-.834-.16-.292-.266-.547-.321-.766v-7.847c.383-.429.813-.768 1.292-1.02.478-.25 1.037-.375 1.675-.375.702 0 1.303.164 1.804.492.502.328.907.757 1.217 1.285.31.52.538 1.13.684 1.832.146.702.219 1.39.219 2.065 0 1.868-.342 3.34-1.026 4.416-.683 1.075-1.581 1.613-2.693 1.613zm16.153.629v-.902c-.246-.019-.467-.05-.663-.096s-.394-.114-.595-.205c-.264-.11-.456-.267-.574-.472-.119-.205-.178-.467-.178-.786V29.041l-.191-.205-5.072.314v.875c.264.019.615.073 1.052.164.438.092.739.192.903.301.227.164.412.39.553.677.142.287.212.595.212.923v15.613c0 .328-.064.595-.191.8-.128.205-.32.349-.574.43-.155.046-.351.08-.588.103-.237.023-.46.043-.67.062V50h6.576zm9.4.355c1.23 0 2.319-.319 3.267-.957.948-.638 1.704-1.494 2.27-2.57l-.958-.588c-.547.985-1.114 1.666-1.702 2.044-.588.378-1.287.568-2.098.568-.793 0-1.477-.153-2.051-.458-.574-.306-1.04-.723-1.395-1.251-.364-.547-.63-1.18-.8-1.9-.168-.72-.252-1.523-.252-2.407h8.927v-.902c0-.812-.102-1.564-.307-2.256-.205-.693-.518-1.295-.937-1.805-.437-.538-1.007-.962-1.709-1.271-.702-.31-1.545-.465-2.53-.465-.956 0-1.82.198-2.59.594-.77.397-1.415.919-1.935 1.566-.537.674-.945 1.433-1.223 2.276-.278.843-.417 1.702-.417 2.577 0 .976.13 1.9.39 2.776.26.875.653 1.64 1.182 2.297.529.656 1.2 1.175 2.017 1.558.815.383 1.766.574 2.85.574zm2.515-8.667h-6.234c.054-1.422.398-2.532 1.032-3.33.633-.797 1.428-1.196 2.385-1.196.575 0 1.044.132 1.409.397.364.264.651.606.861 1.025.191.392.33.88.417 1.463.087.583.13 1.13.13 1.64z" transform="translate(-173 -399) translate(175 399)"/>
            </g>
        </g>
    </g>
</svg>
