<?xml version="1.0" encoding="UTF-8"?>
<svg width="159px" height="47px" viewBox="0 0 159 47" version="1.1" xmlns="http://www.w3.org/2000/svg" xmlns:xlink="http://www.w3.org/1999/xlink">
    <!-- Generator: Sketch 62 (91390) - https://sketch.com -->
    <title>logo-imagible-04</title>
    <desc>Created with Sketch.</desc>
    <g id="Uploader" stroke="none" stroke-width="1" fill="none" fill-rule="evenodd" stroke-linecap="round">
        <g id="Homepage-Copy" transform="translate(-69.000000, -132.000000)">
            <g id="logo-imagible-04" transform="translate(70.000000, 133.000000)">
                <g id="Group-4-Copy">
                    <g id="Group-3" stroke="#77E1DA" stroke-width="2">
                        <path d="M146.428574,34.954831 L155.699807,34.954831 C156.196863,34.954831 156.599807,35.3573529 156.599807,35.8538889 L156.599807,44.8739358 L156.599807,44.8739358" id="Rectangle" transform="translate(151.514190, 39.914383) rotate(90.000000) translate(-151.514190, -39.914383) "></path>
                        <path d="M146.554638,6.48370246e-14 L155.884657,6.48370246e-14 C156.381193,6.48370246e-14 156.783715,0.402943725 156.783715,0.9 L156.783715,9.86301369 L156.783715,9.86301369" id="Rectangle-Copy"></path>
                        <path d="M0.0289220741,34.9548311 L9.30015496,34.9548311 C9.79721123,34.9548311 10.200155,35.357353 10.200155,35.853889 L10.200155,44.8739359 L10.200155,44.8739359" id="Rectangle" transform="translate(5.114539, 39.914384) scale(-1, 1) rotate(90.000000) translate(-5.114539, -39.914384) "></path>
                        <path d="M0.154986204,-1.56072075e-15 L9.48500515,-1.56072075e-15 C9.9815411,-1.56072075e-15 10.384063,0.402943725 10.384063,0.9 L10.384063,9.86301369 L10.384063,9.86301369" id="Rectangle-Copy" transform="translate(5.269525, 4.931507) scale(-1, 1) translate(-5.269525, -4.931507) "></path>
                    </g>
                    <path d="M21.392,12.596 C21.7786667,12.596 22.1073333,12.4606667 22.378,12.19 C22.6486667,11.9193333 22.784,11.5906667 22.784,11.204 C22.784,10.8173333 22.6486667,10.4886667 22.378,10.218 C22.1073333,9.94733333 21.7786667,9.812 21.392,9.812 C21.0053333,9.812 20.6766667,9.94733333 20.406,10.218 C20.1353333,10.4886667 20,10.8173333 20,11.204 C20,11.5906667 20.1353333,11.9193333 20.406,12.19 C20.6766667,12.4606667 21.0053333,12.596 21.392,12.596 Z M22.349,30.17 L22.349,15.67 L20.435,15.67 L20.435,30.17 L22.349,30.17 Z M28.923,30.17 L28.923,22.137 C28.923,20.455 29.329,19.208 30.141,18.396 C30.953,17.584 31.939,17.178 33.099,17.178 C34.143,17.178 34.9695,17.5163333 35.5785,18.193 C36.1875,18.8696667 36.492,19.846 36.492,21.122 L36.492,21.122 L36.492,30.17 L38.406,30.17 L38.406,22.137 C38.406,20.4356667 38.7781667,19.1838333 39.5225,18.3815 C40.2668333,17.5791667 41.2383333,17.178 42.437,17.178 C43.5003333,17.178 44.3558333,17.5211667 45.0035,18.2075 C45.6511667,18.8938333 45.975,19.8653333 45.975,21.122 L45.975,21.122 L45.975,30.17 L47.889,30.17 L47.889,21.122 C47.889,19.3433333 47.3911667,17.932 46.3955,16.888 C45.3998333,15.844 44.09,15.322 42.466,15.322 C40.378,15.322 38.812,16.2016667 37.768,17.961 C36.9173333,16.2016667 35.448,15.322 33.36,15.322 C31.446,15.322 29.967,16.1436667 28.923,17.787 L28.923,17.787 L28.923,15.67 L27.009,15.67 L27.009,30.17 L28.923,30.17 Z M58.813,30.518 C61.3843333,30.518 63.337,29.4546667 64.671,27.328 L64.671,27.328 L64.671,30.17 L66.585,30.17 L66.585,15.67 L64.671,15.67 L64.671,18.512 C63.337,16.3853333 61.3843333,15.322 58.813,15.322 C56.7443333,15.322 54.9801667,16.0566667 53.5205,17.526 C52.0608333,18.9953333 51.331,20.7933333 51.331,22.92 C51.331,25.0466667 52.0608333,26.8446667 53.5205,28.314 C54.9801667,29.7833333 56.7443333,30.518 58.813,30.518 Z M58.958,28.662 C57.3533333,28.662 56,28.111 54.898,27.009 C53.796,25.8876667 53.245,24.5246667 53.245,22.92 C53.245,21.3153333 53.796,19.9571667 54.898,18.8455 C56,17.7338333 57.3533333,17.178 58.958,17.178 C60.5626667,17.178 61.916,17.7338333 63.018,18.8455 C64.12,19.9571667 64.671,21.3153333 64.671,22.92 C64.671,24.5246667 64.12,25.8828333 63.018,26.9945 C61.916,28.1061667 60.5626667,28.662 58.958,28.662 Z M78.35,36.318 C80.3413333,36.318 82.0523333,35.7186667 83.483,34.52 C84.9136667,33.3213333 85.629,31.678 85.629,29.59 L85.629,29.59 L85.629,15.67 L83.715,15.67 L83.715,18.512 C82.381,16.3853333 80.4283333,15.322 77.857,15.322 C75.7883333,15.322 74.0241667,16.0566667 72.5645,17.526 C71.1048333,18.9953333 70.375,20.7933333 70.375,22.92 C70.375,25.0466667 71.1048333,26.8446667 72.5645,28.314 C74.0241667,29.7833333 75.7883333,30.518 77.857,30.518 C80.4283333,30.518 82.381,29.4546667 83.715,27.328 L83.715,27.328 L83.715,29.59 C83.715,31.0786667 83.2365,32.2628333 82.2795,33.1425 C81.3225,34.0221667 80.0126667,34.462 78.35,34.462 C75.7593333,34.462 74.029,33.5823333 73.159,31.823 L73.159,31.823 L71.477,32.78 C72.6563333,35.1386667 74.9473333,36.318 78.35,36.318 Z M78.002,28.662 C76.3973333,28.662 75.044,28.111 73.942,27.009 C72.84,25.8876667 72.289,24.5246667 72.289,22.92 C72.289,21.3153333 72.84,19.9571667 73.942,18.8455 C75.044,17.7338333 76.3973333,17.178 78.002,17.178 C79.6066667,17.178 80.96,17.7338333 82.062,18.8455 C83.164,19.9571667 83.715,21.3153333 83.715,22.92 C83.715,24.5246667 83.164,25.8828333 82.062,26.9945 C80.96,28.1061667 79.6066667,28.662 78.002,28.662 Z M91.246,12.596 C91.6326667,12.596 91.9613333,12.4606667 92.232,12.19 C92.5026667,11.9193333 92.638,11.5906667 92.638,11.204 C92.638,10.8173333 92.5026667,10.4886667 92.232,10.218 C91.9613333,9.94733333 91.6326667,9.812 91.246,9.812 C90.8593333,9.812 90.5306667,9.94733333 90.26,10.218 C89.9893333,10.4886667 89.854,10.8173333 89.854,11.204 C89.854,11.5906667 89.9893333,11.9193333 90.26,12.19 C90.5306667,12.4606667 90.8593333,12.596 91.246,12.596 Z M92.203,30.17 L92.203,15.67 L90.289,15.67 L90.289,30.17 L92.203,30.17 Z M104.635,30.518 C106.703667,30.518 108.467833,29.7833333 109.9275,28.314 C111.387167,26.8446667 112.117,25.0466667 112.117,22.92 C112.117,20.7933333 111.387167,18.9953333 109.9275,17.526 C108.467833,16.0566667 106.703667,15.322 104.635,15.322 C102.063667,15.322 100.111,16.3853333 98.777,18.512 L98.777,18.512 L98.777,9.87 L96.863,9.87 L96.863,30.17 L98.777,30.17 L98.777,27.328 C100.111,29.4546667 102.063667,30.518 104.635,30.518 Z M104.49,28.662 C102.885333,28.662 101.532,28.111 100.43,27.009 C99.328,25.8876667 98.777,24.5246667 98.777,22.92 C98.777,21.3153333 99.328,19.9571667 100.43,18.8455 C101.532,17.7338333 102.885333,17.178 104.49,17.178 C106.094667,17.178 107.448,17.7338333 108.55,18.8455 C109.652,19.9571667 110.203,21.3153333 110.203,22.92 C110.203,24.5246667 109.652,25.8828333 108.55,26.9945 C107.448,28.1061667 106.094667,28.662 104.49,28.662 Z M117.821,30.17 L117.821,9 L115.907,9 L115.907,30.17 L117.821,30.17 Z M129.325,30.518 C130.736333,30.518 131.993,30.2183333 133.095,29.619 C134.197,29.0196667 135.067,28.2076667 135.705,27.183 L135.705,27.183 L134.023,26.197 C133.617,26.9316667 133.012833,27.5261667 132.2105,27.9805 C131.408167,28.4348333 130.456,28.662 129.354,28.662 C127.807333,28.662 126.507167,28.2318333 125.4535,27.3715 C124.399833,26.5111667 123.776333,25.3463333 123.583,23.877 L123.583,23.877 L136.314,23.877 C136.352667,23.4903333 136.372,23.1906667 136.372,22.978 C136.372,20.9093333 135.709833,19.1161667 134.3855,17.5985 C133.061167,16.0808333 131.326,15.322 129.18,15.322 C126.956667,15.322 125.139333,16.047 123.728,17.497 C122.316667,18.947 121.611,20.7546667 121.611,22.92 C121.611,25.124 122.326333,26.9413333 123.757,28.372 C125.187667,29.8026667 127.043667,30.518 129.325,30.518 Z M134.4,22.021 L123.583,22.021 C123.776333,20.5903333 124.3805,19.4255 125.3955,18.5265 C126.4105,17.6275 127.672,17.178 129.18,17.178 C130.494667,17.178 131.645,17.6033333 132.631,18.454 C133.617,19.3046667 134.206667,20.4936667 134.4,22.021 L134.4,22.021 Z" id="imagible" fill="#FFFFFF" fill-rule="nonzero"></path>
                </g>
            </g>
        </g>
    </g>
</svg>