<?xml version="1.0" encoding="UTF-8"?>
<svg width="751px" height="208px" viewBox="0 0 751 208" version="1.1" xmlns="http://www.w3.org/2000/svg" xmlns:xlink="http://www.w3.org/1999/xlink">
    <!-- Generator: Sketch 62 (91390) - https://sketch.com -->
    <title>logo-imagible-02</title>
    <desc>Created with Sketch.</desc>
    <g id="Page-1" stroke="none" stroke-width="1" fill="none" fill-rule="evenodd">
        <g id="logo-imagible-02" transform="translate(4.000000, 4.000000)">
            <g id="Group-4-Copy" stroke="#77E1DA" stroke-linecap="round" stroke-width="8">
                <g id="Group-3">
                    <path d="M695.990334,155.331707 L737.195813,155.331707 C739.404952,155.331707 741.195813,157.122568 741.195813,159.331707 L741.195813,199.462814 L741.195813,199.462814" id="Rectangle" transform="translate(718.593074, 177.397260) rotate(-270.000000) translate(-718.593074, -177.397260) "></path>
                    <path d="M696.52752,7.46069873e-14 L738.037724,7.46069873e-14 C740.246863,7.02769558e-14 742.037724,1.790861 742.037724,4 L742.037724,43.8356164 L742.037724,43.8356164" id="Rectangle-Copy" transform="translate(719.282622, 21.917808) rotate(-360.000000) translate(-719.282622, -21.917808) "></path>
                    <path d="M0.152362315,155.331707 L41.3578418,155.331707 C43.5669808,155.331707 45.3578418,157.122568 45.3578418,159.331707 L45.3578418,199.462814 L45.3578418,199.462814" id="Rectangle" transform="translate(22.755102, 177.397260) scale(-1, 1) rotate(-270.000000) translate(-22.755102, -177.397260) "></path>
                    <path d="M0.689548547,0 L42.1997526,0 C44.4088916,-4.05812251e-16 46.1997526,1.790861 46.1997526,4 L46.1997526,43.8356164 L46.1997526,43.8356164" id="Rectangle-Copy" transform="translate(23.444651, 21.917808) scale(-1, 1) rotate(-360.000000) translate(-23.444651, -21.917808) "></path>
                </g>
            </g>
            <path d="M90.696,148.8 C91.7226667,148.8 92.621,148.440667 93.391,147.722 C94.161,147.003333 94.546,146.130667 94.546,145.104 L94.546,145.104 L94.546,44.696 C94.546,43.6693333 94.161,42.7966667 93.391,42.078 C92.621,41.3593333 91.7226667,41 90.696,41 C89.6693333,41 88.7966667,41.3593333 88.078,42.078 C87.3593333,42.7966667 87,43.6693333 87,44.696 L87,44.696 L87,145.104 C87,146.130667 87.3593333,147.003333 88.078,147.722 C88.7966667,148.440667 89.6693333,148.8 90.696,148.8 Z M125.4145,148.8 C126.0305,148.8 126.543833,148.594667 126.9545,148.184 C128.083833,147.568 128.6485,146.592667 128.6485,145.258 L128.6485,145.258 L128.6485,104.14 C128.6485,97.672 130.907167,92.1536667 135.4245,87.585 C139.941833,83.0163333 145.4345,80.732 151.9025,80.732 C158.3705,80.732 163.863167,83.0163333 168.3805,87.585 C172.897833,92.1536667 175.1565,97.672 175.1565,104.14 L175.1565,104.14 L175.1565,146.028 C175.259167,146.130667 175.336167,146.259 175.3875,146.413 C175.438833,146.567 175.490167,146.695333 175.5415,146.798 C175.592833,146.900667 175.798167,147.157333 176.1575,147.568 C176.516833,147.978667 176.747833,148.184 176.8505,148.184 L176.8505,148.184 L178.0825,148.8 L178.8525,148.8 C179.4685,148.8 180.187167,148.569 181.0085,148.107 C181.829833,147.645 182.343167,147.054667 182.5485,146.336 L182.5485,146.336 L182.5485,146.028 L182.7025,145.72 L182.7025,104.14 C182.7025,97.7746667 184.986833,92.282 189.5555,87.662 C194.124167,83.042 199.591167,80.732 205.9565,80.732 C212.321833,80.732 217.763167,83.0163333 222.2805,87.585 C226.797833,92.1536667 229.159167,97.672 229.3645,104.14 L229.3645,104.14 L229.3645,145.258 C229.3645,146.182 229.698167,147.003333 230.3655,147.722 C231.032833,148.440667 231.879833,148.8 232.9065,148.8 C233.933167,148.8 234.805833,148.440667 235.5245,147.722 C236.243167,147.003333 236.6025,146.182 236.6025,145.258 L236.6025,145.258 L236.6025,104.14 C236.6025,95.7213333 233.5995,88.509 227.5935,82.503 C221.5875,76.497 214.375167,73.494 205.9565,73.494 C200.309833,73.494 195.073833,74.957 190.2485,77.883 C185.423167,80.809 181.6245,84.6846667 178.8525,89.51 C176.183167,84.6846667 172.4615,80.809 167.6875,77.883 C162.9135,74.957 157.651833,73.494 151.9025,73.494 C142.457167,73.494 134.705833,77.0873333 128.6485,84.274 L128.6485,84.274 L128.6485,77.036 C128.6485,76.0093333 128.289167,75.1623333 127.5705,74.495 C126.851833,73.8276667 126.004833,73.494 125.0295,73.494 C124.054167,73.494 123.207167,73.8276667 122.4885,74.495 C121.769833,75.1623333 121.4105,76.0093333 121.4105,77.036 L121.4105,77.036 L121.4105,146.028 C121.923833,147.670667 122.9505,148.594667 124.4905,148.8 L124.4905,148.8 L125.4145,148.8 Z M317.675,148.8 C318.701667,148.8 319.574333,148.440667 320.293,147.722 C321.011667,147.003333 321.371,146.130667 321.371,145.104 L321.371,145.104 L321.371,77.036 C321.371,76.0093333 321.011667,75.1366667 320.293,74.418 C319.574333,73.6993333 318.701667,73.34 317.675,73.34 C316.648333,73.34 315.775667,73.6993333 315.057,74.418 C314.338333,75.1366667 313.979,76.0093333 313.979,77.036 L313.979,77.036 L313.979,88.124 C310.693667,83.6066667 306.561333,80.0133333 301.582,77.344 C296.602667,74.6746667 291.289667,73.34 285.643,73.34 C275.787,73.34 267.368333,77.036 260.387,84.428 C253.405667,91.82 249.915,100.700667 249.915,111.07 C249.915,121.439333 253.405667,130.32 260.387,137.712 C267.368333,145.104 275.787,148.8 285.643,148.8 C291.289667,148.8 296.602667,147.465333 301.582,144.796 C306.561333,142.126667 310.693667,138.482 313.979,133.862 L313.979,133.862 L313.979,145.104 C313.979,146.130667 314.338333,147.003333 315.057,147.722 C315.775667,148.440667 316.648333,148.8 317.675,148.8 Z M285.72,141.408 C277.968667,141.408 271.295333,138.456333 265.7,132.553 C260.104667,126.649667 257.307,119.488667 257.307,111.07 C257.307,102.651333 260.104667,95.4646667 265.7,89.51 C271.295333,83.5553333 277.968667,80.578 285.72,80.578 C293.471333,80.578 300.119,83.5553333 305.663,89.51 C311.207,95.4646667 313.979,102.651333 313.979,111.07 C313.979,119.488667 311.207,126.649667 305.663,132.553 C300.119,138.456333 293.471333,141.408 285.72,141.408 Z M373.9535,178.214 C383.8095,178.214 392.2025,174.749 399.1325,167.819 C406.0625,160.889 409.5275,152.547333 409.5275,142.794 L409.5275,142.794 L409.5275,77.036 C409.5275,76.0093333 409.168167,75.1366667 408.4495,74.418 C407.730833,73.6993333 406.883833,73.34 405.9085,73.34 C404.933167,73.34 404.0605,73.6993333 403.2905,74.418 C402.5205,75.1366667 402.1355,76.0093333 402.1355,77.036 L402.1355,77.036 L402.1355,88.124 C398.952833,83.6066667 394.871833,80.0133333 389.8925,77.344 C384.913167,74.6746667 379.600167,73.34 373.9535,73.34 C364.200167,73.34 355.8585,77.0103333 348.9285,84.351 C341.9985,91.6916667 338.5335,100.521 338.5335,110.839 C338.5335,121.157 341.972833,129.986333 348.8515,137.327 C355.730167,144.667667 364.0975,148.338 373.9535,148.338 C379.702833,148.338 385.0415,147.029 389.9695,144.411 C394.8975,141.793 398.952833,138.174 402.1355,133.554 L402.1355,133.554 L402.1355,142.794 C402.1355,150.596667 399.389167,157.218667 393.8965,162.66 C388.403833,168.101333 381.756167,170.822 373.9535,170.822 C369.6415,170.822 365.534833,169.898 361.6335,168.05 C359.4775,166.818 357.834833,167.382667 356.7055,169.744 C355.678833,171.592 356.192167,173.234667 358.2455,174.672 C363.686833,177.033333 368.922833,178.214 373.9535,178.214 Z M374.0305,141.1 C366.279167,141.1 359.657167,138.148333 354.1645,132.245 C348.671833,126.341667 345.9255,119.232 345.9255,110.916 C345.9255,102.497333 348.671833,95.362 354.1645,89.51 C359.657167,83.658 366.279167,80.732 374.0305,80.732 C381.781833,80.732 388.403833,83.6323333 393.8965,89.433 C399.389167,95.2336667 402.1355,102.343333 402.1355,110.762 C402.1355,119.180667 399.389167,126.341667 393.8965,132.245 C388.403833,138.148333 381.781833,141.1 374.0305,141.1 Z M439.318,59.942 C440.344667,59.942 441.243,59.557 442.013,58.787 C442.783,58.017 443.168,57.0673333 443.168,55.938 L443.168,55.938 L443.168,52.396 C443.168,51.3693333 442.783,50.4966667 442.013,49.778 C441.243,49.0593333 440.344667,48.7 439.318,48.7 C438.291333,48.7 437.418667,49.0593333 436.7,49.778 C435.981333,50.4966667 435.622,51.3693333 435.622,52.396 L435.622,52.396 L435.622,55.938 C435.622,57.0673333 435.981333,58.017 436.7,58.787 C437.418667,59.557 438.291333,59.942 439.318,59.942 Z M439.318,148.8 C440.344667,148.8 441.243,148.440667 442.013,147.722 C442.783,147.003333 443.168,146.130667 443.168,145.104 L443.168,145.104 L443.168,77.036 C443.168,76.0093333 442.808667,75.1366667 442.09,74.418 C441.371333,73.6993333 440.473,73.34 439.395,73.34 C438.317,73.34 437.418667,73.6993333 436.7,74.418 C435.981333,75.1366667 435.622,76.0093333 435.622,77.036 L435.622,77.036 L435.622,145.104 C435.622,146.130667 435.981333,147.003333 436.7,147.722 C437.418667,148.440667 438.291333,148.8 439.318,148.8 Z M505.4525,148.8 C515.6165,148.8 524.2405,145.129667 531.3245,137.789 C538.4085,130.448333 541.9505,121.567667 541.9505,111.147 C541.9505,100.726333 538.4085,91.82 531.3245,84.428 C524.2405,77.036 515.6165,73.34 505.4525,73.34 C499.6005,73.34 494.159167,74.6746667 489.1285,77.344 C484.097833,80.0133333 479.8885,83.6066667 476.5005,88.124 L476.5005,88.124 L476.5005,44.696 C476.5005,43.6693333 476.1155,42.7966667 475.3455,42.078 C474.5755,41.3593333 473.677167,41 472.6505,41 C471.623833,41 470.751167,41.3593333 470.0325,42.078 C469.313833,42.7966667 468.9545,43.6693333 468.9545,44.696 L468.9545,44.696 L468.9545,145.104 C468.9545,146.130667 469.313833,147.003333 470.0325,147.722 C470.751167,148.440667 471.623833,148.8 472.6505,148.8 C473.677167,148.8 474.5755,148.440667 475.3455,147.722 C476.1155,147.003333 476.5005,146.130667 476.5005,145.104 L476.5005,145.104 L476.5005,134.17 C479.8885,138.687333 484.097833,142.255 489.1285,144.873 C494.159167,147.491 499.6005,148.8 505.4525,148.8 Z M505.5295,141.254 C497.572833,141.254 490.7455,138.328 485.0475,132.476 C479.3495,126.624 476.5005,119.54 476.5005,111.224 L476.5005,111.224 L476.5005,109.992 C476.8085,101.881333 479.760167,95.0026667 485.3555,89.356 C490.950833,83.7093333 497.701167,80.886 505.6065,80.886 C513.511833,80.886 520.287833,83.8376667 525.9345,89.741 C531.581167,95.6443333 534.4045,102.779667 534.4045,111.147 C534.4045,119.514333 531.581167,126.624 525.9345,132.476 C520.287833,138.328 513.486167,141.254 505.5295,141.254 Z M565.581,148.8 C566.607667,148.8 567.506,148.440667 568.276,147.722 C569.046,147.003333 569.431,146.130667 569.431,145.104 L569.431,145.104 L569.431,44.696 C569.431,43.6693333 569.046,42.7966667 568.276,42.078 C567.506,41.3593333 566.607667,41 565.581,41 C564.554333,41 563.681667,41.3593333 562.963,42.078 C562.244333,42.7966667 561.885,43.6693333 561.885,44.696 L561.885,44.696 L561.885,145.104 C561.885,146.130667 562.244333,147.003333 562.963,147.722 C563.681667,148.440667 564.554333,148.8 565.581,148.8 Z M620.6275,148.8 C626.890167,148.8 632.7165,147.26 638.1065,144.18 C643.4965,141.1 647.834167,136.942 651.1195,131.706 C652.3515,129.652667 651.940833,127.907333 649.8875,126.47 C647.834167,125.238 646.1915,125.648667 644.9595,127.702 C642.392833,131.911333 638.9535,135.248 634.6415,137.712 C630.3295,140.176 625.658167,141.408 620.6275,141.408 C612.824833,141.408 606.100167,138.636 600.4535,133.092 C594.806833,127.548 591.778167,120.669333 591.3675,112.456 L591.3675,112.456 L653.2755,112.456 C654.302167,112.456 655.174833,112.148 655.8935,111.532 C656.612167,110.916 656.9715,110.094667 656.9715,109.068 L656.9715,109.068 L656.9715,108.452 C656.150167,98.4933333 652.300167,90.1516667 645.4215,83.427 C638.542833,76.7023333 630.149833,73.34 620.2425,73.34 C610.335167,73.34 601.813833,77.036 594.6785,84.428 C587.543167,91.82 583.9755,100.726333 583.9755,111.147 C583.9755,121.567667 587.543167,130.448333 594.6785,137.789 C601.813833,145.129667 610.4635,148.8 620.6275,148.8 Z M648.9635,105.218 L591.8295,105.218 C593.266833,98.0313333 596.654833,92.1536667 601.9935,87.585 C607.332167,83.0163333 613.517833,80.732 620.5505,80.732 C627.583167,80.732 633.768833,83.042 639.1075,87.662 C644.446167,92.282 647.7315,98.134 648.9635,105.218 L648.9635,105.218 Z" id="Imagible" fill="#FFFFFF" fill-rule="nonzero"></path>
        </g>
    </g>
</svg>